G75*
%MOIN*%
%OFA0B0*%
%FSLAX25Y25*%
%IPPOS*%
%LPD*%
%AMOC8*
5,1,8,0,0,1.08239X$1,22.5*
%
%ADD10OC8,0.05200*%
%ADD11C,0.08600*%
%ADD12OC8,0.07600*%
%ADD13C,0.06000*%
%ADD14R,0.03150X0.04724*%
%ADD15R,0.07087X0.06299*%
%ADD16R,0.06000X0.06000*%
%ADD17OC8,0.06000*%
%ADD18C,0.04756*%
%ADD19C,0.05600*%
%ADD20C,0.10000*%
%ADD21OC8,0.10000*%
%ADD22R,0.05150X0.05150*%
%ADD23OC8,0.07000*%
%ADD24C,0.07000*%
%ADD25C,0.05000*%
%ADD26C,0.01000*%
%ADD27C,0.07000*%
D10*
X0217164Y0150516D03*
X0222164Y0143016D03*
X0227164Y0150516D03*
D11*
X0142538Y0031540D03*
X0122853Y0031540D03*
D12*
X0210983Y0126107D03*
X0126377Y0195359D03*
D13*
X0098826Y0193371D02*
X0092826Y0193371D01*
X0092826Y0183371D02*
X0098826Y0183371D01*
X0098826Y0173371D02*
X0092826Y0173371D01*
X0092826Y0143568D02*
X0098826Y0143568D01*
X0098826Y0133568D02*
X0092826Y0133568D01*
X0092826Y0123568D02*
X0098826Y0123568D01*
X0098826Y0091678D02*
X0092826Y0091678D01*
X0092826Y0081678D02*
X0098826Y0081678D01*
X0098826Y0071678D02*
X0092826Y0071678D01*
X0073503Y0049855D02*
X0073503Y0043855D01*
X0063503Y0043855D02*
X0063503Y0049855D01*
X0053503Y0049855D02*
X0053503Y0043855D01*
X0043503Y0043855D02*
X0043503Y0049855D01*
X0043503Y0024658D02*
X0043503Y0018658D01*
X0053503Y0018658D02*
X0053503Y0024658D01*
X0063503Y0024658D02*
X0063503Y0018658D01*
X0073503Y0018658D02*
X0073503Y0024658D01*
D14*
X0114094Y0102485D03*
X0121180Y0102485D03*
X0121180Y0110339D03*
X0114094Y0110339D03*
X0114094Y0118233D03*
X0121180Y0118233D03*
D15*
X0205668Y0106973D03*
X0205668Y0095949D03*
D16*
X0181731Y0200359D03*
D17*
X0171731Y0200359D03*
X0161731Y0200359D03*
X0151731Y0200359D03*
X0141731Y0200359D03*
D18*
X0134172Y0149729D02*
X0129416Y0149729D01*
X0129416Y0141855D02*
X0134172Y0141855D01*
X0134172Y0133981D02*
X0129416Y0133981D01*
X0129416Y0126107D02*
X0134172Y0126107D01*
X0134172Y0118233D02*
X0129416Y0118233D01*
X0129416Y0110359D02*
X0134172Y0110359D01*
X0134172Y0102485D02*
X0129416Y0102485D01*
X0129416Y0094611D02*
X0134172Y0094611D01*
X0189290Y0094611D02*
X0194046Y0094611D01*
X0194046Y0102485D02*
X0189290Y0102485D01*
X0189290Y0110359D02*
X0194046Y0110359D01*
X0194046Y0118233D02*
X0189290Y0118233D01*
X0189290Y0126107D02*
X0194046Y0126107D01*
X0194046Y0133981D02*
X0189290Y0133981D01*
X0189290Y0141855D02*
X0194046Y0141855D01*
X0194046Y0149729D02*
X0189290Y0149729D01*
D19*
X0221338Y0108351D03*
X0221338Y0100477D03*
D20*
X0124920Y0058469D03*
D21*
X0124920Y0078469D03*
D22*
X0163582Y0080083D03*
X0202912Y0079808D03*
X0203109Y0017288D03*
X0163582Y0017170D03*
D23*
X0228936Y0044375D03*
X0228936Y0070477D03*
D24*
X0218936Y0070477D03*
X0218936Y0044375D03*
D25*
X0218936Y0070477D01*
X0163621Y0070477D01*
X0163621Y0081068D01*
X0163582Y0080083D01*
X0163621Y0081068D02*
X0163621Y0094611D01*
X0134172Y0094611D01*
X0134172Y0102485D02*
X0121180Y0102485D01*
X0114094Y0102485D02*
X0108542Y0102485D01*
X0108542Y0071678D01*
X0095826Y0071678D01*
X0124920Y0058469D02*
X0125058Y0018036D01*
X0163621Y0018154D01*
X0202952Y0018312D02*
X0203109Y0018312D01*
X0202952Y0018312D02*
X0202952Y0033823D01*
X0228763Y0033981D01*
X0228936Y0070477D01*
X0227345Y0088272D01*
X0232086Y0088272D01*
X0232086Y0150516D01*
X0227164Y0150516D01*
X0222164Y0143016D02*
X0222125Y0138253D01*
X0222125Y0133981D01*
X0189290Y0133981D01*
X0189290Y0126107D02*
X0210983Y0126107D01*
X0202558Y0118194D02*
X0200983Y0118233D01*
X0189290Y0118233D01*
X0202558Y0118194D02*
X0221338Y0118233D01*
X0221338Y0108351D01*
X0221338Y0100477D02*
X0215865Y0100477D01*
X0215865Y0095792D01*
X0221338Y0100477D02*
X0228542Y0100477D01*
X0228542Y0097642D01*
X0221338Y0100477D02*
X0221377Y0088154D01*
X0227345Y0088272D01*
X0221377Y0088154D02*
X0206495Y0088272D01*
X0206495Y0087859D01*
X0206495Y0088272D02*
X0201771Y0088272D01*
X0201771Y0087859D01*
X0201771Y0088272D02*
X0189094Y0088272D01*
X0189094Y0088154D01*
X0189290Y0094611D02*
X0176771Y0094611D01*
X0176771Y0089414D01*
X0189290Y0094611D02*
X0205078Y0094611D01*
X0205078Y0096225D01*
X0205668Y0095949D02*
X0203168Y0080792D01*
X0202912Y0079808D01*
X0218936Y0070477D02*
X0219408Y0070477D01*
X0197716Y0102446D02*
X0189330Y0102446D01*
X0189290Y0102485D01*
X0197716Y0102446D02*
X0202243Y0106973D01*
X0205668Y0106973D01*
X0189290Y0141855D02*
X0171968Y0141855D01*
X0171731Y0200359D01*
X0181731Y0200359D02*
X0181653Y0149729D01*
X0189290Y0149729D01*
X0153542Y0149729D02*
X0153542Y0126107D01*
X0134172Y0126107D01*
X0134172Y0118233D02*
X0121180Y0118233D01*
X0114094Y0118233D02*
X0108424Y0118272D01*
X0108424Y0173371D01*
X0095826Y0173371D01*
X0121062Y0195359D02*
X0121062Y0141855D01*
X0134172Y0141855D01*
X0134172Y0149729D02*
X0153542Y0149729D01*
X0134172Y0110359D02*
X0121200Y0110359D01*
X0121180Y0110339D01*
X0114094Y0110339D02*
X0095826Y0110339D01*
X0095826Y0123568D01*
X0121062Y0195359D02*
X0126377Y0195359D01*
D26*
X0133384Y0189214D02*
X0163776Y0189214D01*
X0163772Y0190212D02*
X0134383Y0190212D01*
X0135381Y0191211D02*
X0163768Y0191211D01*
X0163766Y0191859D02*
X0163968Y0141840D01*
X0163968Y0140264D01*
X0163974Y0140248D01*
X0163974Y0140231D01*
X0164582Y0138780D01*
X0165185Y0137323D01*
X0165197Y0137311D01*
X0165204Y0137296D01*
X0166322Y0136187D01*
X0167436Y0135073D01*
X0167451Y0135066D01*
X0167463Y0135055D01*
X0168921Y0134458D01*
X0170376Y0133855D01*
X0170393Y0133855D01*
X0170409Y0133849D01*
X0171983Y0133855D01*
X0181290Y0133855D01*
X0181290Y0132390D01*
X0182262Y0130044D01*
X0181290Y0127698D01*
X0181290Y0124516D01*
X0182262Y0122170D01*
X0181290Y0119824D01*
X0181290Y0116642D01*
X0182328Y0114136D01*
X0181412Y0111926D01*
X0181412Y0108792D01*
X0182328Y0106581D01*
X0181290Y0104076D01*
X0181290Y0100894D01*
X0182508Y0097953D01*
X0184798Y0095663D01*
X0187738Y0094446D01*
X0199307Y0094446D01*
X0202247Y0095663D01*
X0204498Y0097914D01*
X0204907Y0098323D01*
X0210306Y0098323D01*
X0212327Y0099161D01*
X0213874Y0100708D01*
X0214712Y0102729D01*
X0214712Y0103239D01*
X0216636Y0101315D01*
X0219687Y0100051D01*
X0222989Y0100051D01*
X0226039Y0101315D01*
X0228374Y0103649D01*
X0229638Y0106700D01*
X0229638Y0110002D01*
X0229338Y0110726D01*
X0229338Y0116650D01*
X0229341Y0116658D01*
X0229338Y0118241D01*
X0229338Y0119824D01*
X0229334Y0119832D01*
X0229334Y0119841D01*
X0228726Y0121301D01*
X0228120Y0122765D01*
X0228114Y0122771D01*
X0228110Y0122779D01*
X0226988Y0123896D01*
X0225869Y0125015D01*
X0225861Y0125018D01*
X0225855Y0125024D01*
X0224392Y0125627D01*
X0223537Y0125981D01*
X0223716Y0125981D01*
X0226657Y0127199D01*
X0228907Y0129449D01*
X0230125Y0132390D01*
X0230125Y0138219D01*
X0230136Y0139533D01*
X0230264Y0139661D01*
X0230264Y0146372D01*
X0225520Y0151116D01*
X0225264Y0151116D01*
X0225264Y0153872D01*
X0220520Y0158616D01*
X0213809Y0158616D01*
X0209064Y0153872D01*
X0209064Y0147161D01*
X0213809Y0142416D01*
X0214064Y0142416D01*
X0214064Y0141981D01*
X0201924Y0141981D01*
X0201924Y0143422D01*
X0200943Y0145792D01*
X0201924Y0148162D01*
X0201924Y0151296D01*
X0200725Y0154191D01*
X0198509Y0156408D01*
X0195613Y0157607D01*
X0191176Y0157607D01*
X0190882Y0157729D01*
X0189665Y0157729D01*
X0189723Y0195038D01*
X0190231Y0196265D01*
X0190231Y0204453D01*
X0189394Y0206474D01*
X0187847Y0208022D01*
X0185825Y0208859D01*
X0177637Y0208859D01*
X0175951Y0208160D01*
X0175252Y0208859D01*
X0168211Y0208859D01*
X0166731Y0207380D01*
X0165252Y0208859D01*
X0158211Y0208859D01*
X0156731Y0207380D01*
X0155252Y0208859D01*
X0148211Y0208859D01*
X0143231Y0203880D01*
X0143231Y0196838D01*
X0148211Y0191859D01*
X0155252Y0191859D01*
X0156731Y0193338D01*
X0158211Y0191859D01*
X0163766Y0191859D01*
X0163780Y0188215D02*
X0132386Y0188215D01*
X0131387Y0187217D02*
X0163784Y0187217D01*
X0163788Y0186218D02*
X0130389Y0186218D01*
X0130229Y0186059D02*
X0135677Y0191507D01*
X0135677Y0199211D01*
X0130229Y0204659D01*
X0122525Y0204659D01*
X0121225Y0203359D01*
X0119471Y0203359D01*
X0116530Y0202141D01*
X0114280Y0199891D01*
X0113062Y0196950D01*
X0113062Y0180047D01*
X0112956Y0180153D01*
X0110016Y0181371D01*
X0107198Y0181371D01*
X0107326Y0181680D01*
X0107326Y0185061D01*
X0106032Y0188186D01*
X0103641Y0190577D01*
X0100517Y0191871D01*
X0098815Y0191871D01*
X0097655Y0192351D01*
X0060163Y0192351D01*
X0061565Y0193753D01*
X0062822Y0196788D01*
X0062822Y0200072D01*
X0061565Y0203106D01*
X0059243Y0205429D01*
X0056208Y0206686D01*
X0052924Y0206686D01*
X0049889Y0205429D01*
X0047567Y0203106D01*
X0046310Y0200072D01*
X0046310Y0196788D01*
X0047567Y0193753D01*
X0048969Y0192351D01*
X0041713Y0192351D01*
X0038818Y0191152D01*
X0038818Y0210646D01*
X0238042Y0210646D01*
X0238042Y0013390D01*
X0174739Y0013390D01*
X0174739Y0022458D01*
X0173826Y0024663D01*
X0172138Y0026351D01*
X0169933Y0027264D01*
X0136550Y0027264D01*
X0136550Y0065765D01*
X0135637Y0067970D01*
X0133949Y0069658D01*
X0131744Y0070572D01*
X0116542Y0070572D01*
X0116542Y0086446D01*
X0135799Y0086446D01*
X0136198Y0086611D01*
X0155621Y0086611D01*
X0155621Y0084028D01*
X0155507Y0083752D01*
X0155507Y0076414D01*
X0155621Y0076139D01*
X0155621Y0068886D01*
X0156839Y0065945D01*
X0159089Y0063695D01*
X0162030Y0062477D01*
X0210936Y0062477D01*
X0210936Y0048579D01*
X0209936Y0046165D01*
X0209936Y0042584D01*
X0211306Y0039277D01*
X0213838Y0036745D01*
X0217146Y0035375D01*
X0220726Y0035375D01*
X0224034Y0036745D01*
X0226566Y0039277D01*
X0227936Y0042584D01*
X0227936Y0046165D01*
X0226936Y0048579D01*
X0226936Y0066273D01*
X0227936Y0068687D01*
X0227936Y0072267D01*
X0226566Y0075575D01*
X0224034Y0078107D01*
X0220726Y0079477D01*
X0217146Y0079477D01*
X0214732Y0078477D01*
X0171657Y0078477D01*
X0171657Y0081793D01*
X0171678Y0082338D01*
X0171657Y0082397D01*
X0171657Y0083752D01*
X0171621Y0083838D01*
X0171621Y0096202D01*
X0170403Y0099143D01*
X0168153Y0101393D01*
X0165212Y0102611D01*
X0142172Y0102611D01*
X0142172Y0104076D01*
X0141201Y0106422D01*
X0142172Y0108768D01*
X0142172Y0111950D01*
X0141201Y0114296D01*
X0142172Y0116642D01*
X0142172Y0118107D01*
X0155134Y0118107D01*
X0158074Y0119325D01*
X0160324Y0121575D01*
X0161542Y0124516D01*
X0161542Y0151320D01*
X0160324Y0154261D01*
X0158074Y0156511D01*
X0155134Y0157729D01*
X0132581Y0157729D01*
X0132286Y0157607D01*
X0129062Y0157607D01*
X0129062Y0186059D01*
X0130229Y0186059D01*
X0129062Y0185220D02*
X0163792Y0185220D01*
X0163796Y0184221D02*
X0129062Y0184221D01*
X0129062Y0183223D02*
X0163800Y0183223D01*
X0163804Y0182224D02*
X0129062Y0182224D01*
X0129062Y0181226D02*
X0163809Y0181226D01*
X0163813Y0180227D02*
X0129062Y0180227D01*
X0129062Y0179229D02*
X0163817Y0179229D01*
X0163821Y0178230D02*
X0129062Y0178230D01*
X0129062Y0177232D02*
X0163825Y0177232D01*
X0163829Y0176233D02*
X0129062Y0176233D01*
X0129062Y0175235D02*
X0163833Y0175235D01*
X0163837Y0174236D02*
X0129062Y0174236D01*
X0129062Y0173238D02*
X0163841Y0173238D01*
X0163845Y0172239D02*
X0129062Y0172239D01*
X0129062Y0171241D02*
X0163849Y0171241D01*
X0163853Y0170242D02*
X0129062Y0170242D01*
X0129062Y0169244D02*
X0163857Y0169244D01*
X0163861Y0168245D02*
X0129062Y0168245D01*
X0129062Y0167247D02*
X0163865Y0167247D01*
X0163869Y0166248D02*
X0129062Y0166248D01*
X0129062Y0165250D02*
X0163873Y0165250D01*
X0163877Y0164251D02*
X0129062Y0164251D01*
X0129062Y0163253D02*
X0163881Y0163253D01*
X0163885Y0162254D02*
X0129062Y0162254D01*
X0129062Y0161256D02*
X0163889Y0161256D01*
X0163893Y0160257D02*
X0129062Y0160257D01*
X0129062Y0159259D02*
X0163897Y0159259D01*
X0163901Y0158260D02*
X0129062Y0158260D01*
X0113062Y0180227D02*
X0112776Y0180227D01*
X0113062Y0181226D02*
X0110365Y0181226D01*
X0113062Y0182224D02*
X0107326Y0182224D01*
X0107326Y0183223D02*
X0113062Y0183223D01*
X0113062Y0184221D02*
X0107326Y0184221D01*
X0107260Y0185220D02*
X0113062Y0185220D01*
X0113062Y0186218D02*
X0106847Y0186218D01*
X0106433Y0187217D02*
X0113062Y0187217D01*
X0113062Y0188215D02*
X0106002Y0188215D01*
X0105003Y0189214D02*
X0113062Y0189214D01*
X0113062Y0190212D02*
X0104005Y0190212D01*
X0102109Y0191211D02*
X0113062Y0191211D01*
X0113062Y0192209D02*
X0097997Y0192209D01*
X0113062Y0193208D02*
X0061020Y0193208D01*
X0061753Y0194207D02*
X0113062Y0194207D01*
X0113062Y0195205D02*
X0062166Y0195205D01*
X0062580Y0196204D02*
X0113062Y0196204D01*
X0113166Y0197202D02*
X0062822Y0197202D01*
X0062822Y0198201D02*
X0113580Y0198201D01*
X0113994Y0199199D02*
X0062822Y0199199D01*
X0062770Y0200198D02*
X0114587Y0200198D01*
X0115586Y0201196D02*
X0062356Y0201196D01*
X0061943Y0202195D02*
X0116660Y0202195D01*
X0119070Y0203193D02*
X0061478Y0203193D01*
X0060480Y0204192D02*
X0122058Y0204192D01*
X0130696Y0204192D02*
X0143543Y0204192D01*
X0143231Y0203193D02*
X0131695Y0203193D01*
X0132693Y0202195D02*
X0143231Y0202195D01*
X0143231Y0201196D02*
X0133692Y0201196D01*
X0134690Y0200198D02*
X0143231Y0200198D01*
X0143231Y0199199D02*
X0135677Y0199199D01*
X0135677Y0198201D02*
X0143231Y0198201D01*
X0143231Y0197202D02*
X0135677Y0197202D01*
X0135677Y0196204D02*
X0143866Y0196204D01*
X0144864Y0195205D02*
X0135677Y0195205D01*
X0135677Y0194207D02*
X0145863Y0194207D01*
X0146861Y0193208D02*
X0135677Y0193208D01*
X0135677Y0192209D02*
X0147860Y0192209D01*
X0155603Y0192209D02*
X0157860Y0192209D01*
X0156861Y0193208D02*
X0156601Y0193208D01*
X0144542Y0205190D02*
X0059481Y0205190D01*
X0057408Y0206189D02*
X0145540Y0206189D01*
X0146539Y0207187D02*
X0038818Y0207187D01*
X0038818Y0206189D02*
X0051724Y0206189D01*
X0049651Y0205190D02*
X0038818Y0205190D01*
X0038818Y0204192D02*
X0048652Y0204192D01*
X0047654Y0203193D02*
X0038818Y0203193D01*
X0038818Y0202195D02*
X0047189Y0202195D01*
X0046776Y0201196D02*
X0038818Y0201196D01*
X0038818Y0200198D02*
X0046362Y0200198D01*
X0046310Y0199199D02*
X0038818Y0199199D01*
X0038818Y0198201D02*
X0046310Y0198201D01*
X0046310Y0197202D02*
X0038818Y0197202D01*
X0038818Y0196204D02*
X0046552Y0196204D01*
X0046966Y0195205D02*
X0038818Y0195205D01*
X0038818Y0194207D02*
X0047379Y0194207D01*
X0048112Y0193208D02*
X0038818Y0193208D01*
X0038818Y0192209D02*
X0041371Y0192209D01*
X0038960Y0191211D02*
X0038818Y0191211D01*
X0038818Y0208186D02*
X0147537Y0208186D01*
X0155925Y0208186D02*
X0157537Y0208186D01*
X0165925Y0208186D02*
X0167537Y0208186D01*
X0175925Y0208186D02*
X0176012Y0208186D01*
X0187451Y0208186D02*
X0238042Y0208186D01*
X0238042Y0209184D02*
X0038818Y0209184D01*
X0038818Y0210183D02*
X0238042Y0210183D01*
X0238042Y0207187D02*
X0188681Y0207187D01*
X0189512Y0206189D02*
X0213141Y0206189D01*
X0214341Y0206686D02*
X0211307Y0205429D01*
X0208984Y0203106D01*
X0207727Y0200072D01*
X0207727Y0196788D01*
X0208984Y0193753D01*
X0211307Y0191431D01*
X0214341Y0190174D01*
X0217625Y0190174D01*
X0220660Y0191431D01*
X0222982Y0193753D01*
X0224239Y0196788D01*
X0224239Y0200072D01*
X0222982Y0203106D01*
X0220660Y0205429D01*
X0217625Y0206686D01*
X0214341Y0206686D01*
X0218825Y0206189D02*
X0238042Y0206189D01*
X0238042Y0205190D02*
X0220899Y0205190D01*
X0221897Y0204192D02*
X0238042Y0204192D01*
X0238042Y0203193D02*
X0222896Y0203193D01*
X0223360Y0202195D02*
X0238042Y0202195D01*
X0238042Y0201196D02*
X0223774Y0201196D01*
X0224187Y0200198D02*
X0238042Y0200198D01*
X0238042Y0199199D02*
X0224239Y0199199D01*
X0224239Y0198201D02*
X0238042Y0198201D01*
X0238042Y0197202D02*
X0224239Y0197202D01*
X0223997Y0196204D02*
X0238042Y0196204D01*
X0238042Y0195205D02*
X0223584Y0195205D01*
X0223170Y0194207D02*
X0238042Y0194207D01*
X0238042Y0193208D02*
X0222437Y0193208D01*
X0221439Y0192209D02*
X0238042Y0192209D01*
X0238042Y0191211D02*
X0220129Y0191211D01*
X0217719Y0190212D02*
X0238042Y0190212D01*
X0238042Y0189214D02*
X0189714Y0189214D01*
X0189716Y0190212D02*
X0214248Y0190212D01*
X0211837Y0191211D02*
X0189717Y0191211D01*
X0189719Y0192209D02*
X0210528Y0192209D01*
X0209529Y0193208D02*
X0189720Y0193208D01*
X0189722Y0194207D02*
X0208796Y0194207D01*
X0208383Y0195205D02*
X0189792Y0195205D01*
X0190206Y0196204D02*
X0207969Y0196204D01*
X0207727Y0197202D02*
X0190231Y0197202D01*
X0190231Y0198201D02*
X0207727Y0198201D01*
X0207727Y0199199D02*
X0190231Y0199199D01*
X0190231Y0200198D02*
X0207779Y0200198D01*
X0208193Y0201196D02*
X0190231Y0201196D01*
X0190231Y0202195D02*
X0208607Y0202195D01*
X0209071Y0203193D02*
X0190231Y0203193D01*
X0190231Y0204192D02*
X0210070Y0204192D01*
X0211068Y0205190D02*
X0189926Y0205190D01*
X0189712Y0188215D02*
X0238042Y0188215D01*
X0238042Y0187217D02*
X0189711Y0187217D01*
X0189709Y0186218D02*
X0238042Y0186218D01*
X0238042Y0185220D02*
X0189708Y0185220D01*
X0189706Y0184221D02*
X0238042Y0184221D01*
X0238042Y0183223D02*
X0189705Y0183223D01*
X0189703Y0182224D02*
X0238042Y0182224D01*
X0238042Y0181226D02*
X0189702Y0181226D01*
X0189700Y0180227D02*
X0238042Y0180227D01*
X0238042Y0179229D02*
X0189698Y0179229D01*
X0189697Y0178230D02*
X0238042Y0178230D01*
X0238042Y0177232D02*
X0189695Y0177232D01*
X0189694Y0176233D02*
X0238042Y0176233D01*
X0238042Y0175235D02*
X0189692Y0175235D01*
X0189691Y0174236D02*
X0238042Y0174236D01*
X0238042Y0173238D02*
X0189689Y0173238D01*
X0189688Y0172239D02*
X0238042Y0172239D01*
X0238042Y0171241D02*
X0189686Y0171241D01*
X0189684Y0170242D02*
X0238042Y0170242D01*
X0238042Y0169244D02*
X0189683Y0169244D01*
X0189681Y0168245D02*
X0238042Y0168245D01*
X0238042Y0167247D02*
X0189680Y0167247D01*
X0189678Y0166248D02*
X0238042Y0166248D01*
X0238042Y0165250D02*
X0189677Y0165250D01*
X0189675Y0164251D02*
X0238042Y0164251D01*
X0238042Y0163253D02*
X0189674Y0163253D01*
X0189672Y0162254D02*
X0238042Y0162254D01*
X0238042Y0161256D02*
X0189670Y0161256D01*
X0189669Y0160257D02*
X0238042Y0160257D01*
X0238042Y0159259D02*
X0189667Y0159259D01*
X0189666Y0158260D02*
X0213453Y0158260D01*
X0212454Y0157262D02*
X0196447Y0157262D01*
X0198653Y0156263D02*
X0211456Y0156263D01*
X0210457Y0155265D02*
X0199652Y0155265D01*
X0200650Y0154266D02*
X0209459Y0154266D01*
X0209064Y0153268D02*
X0201108Y0153268D01*
X0201521Y0152269D02*
X0209064Y0152269D01*
X0209064Y0151271D02*
X0201924Y0151271D01*
X0201924Y0150272D02*
X0209064Y0150272D01*
X0209064Y0149274D02*
X0201924Y0149274D01*
X0201924Y0148275D02*
X0209064Y0148275D01*
X0209064Y0147276D02*
X0201557Y0147276D01*
X0201144Y0146278D02*
X0209948Y0146278D01*
X0210946Y0145279D02*
X0201155Y0145279D01*
X0201568Y0144281D02*
X0211945Y0144281D01*
X0212943Y0143282D02*
X0201924Y0143282D01*
X0201924Y0142284D02*
X0214064Y0142284D01*
X0225264Y0151271D02*
X0238042Y0151271D01*
X0238042Y0152269D02*
X0225264Y0152269D01*
X0225264Y0153268D02*
X0238042Y0153268D01*
X0238042Y0154266D02*
X0224870Y0154266D01*
X0223871Y0155265D02*
X0238042Y0155265D01*
X0238042Y0156263D02*
X0222873Y0156263D01*
X0221874Y0157262D02*
X0238042Y0157262D01*
X0238042Y0158260D02*
X0220876Y0158260D01*
X0226364Y0150272D02*
X0238042Y0150272D01*
X0238042Y0149274D02*
X0227362Y0149274D01*
X0228361Y0148275D02*
X0238042Y0148275D01*
X0238042Y0147276D02*
X0229359Y0147276D01*
X0230264Y0146278D02*
X0238042Y0146278D01*
X0238042Y0145279D02*
X0230264Y0145279D01*
X0230264Y0144281D02*
X0238042Y0144281D01*
X0238042Y0143282D02*
X0230264Y0143282D01*
X0230264Y0142284D02*
X0238042Y0142284D01*
X0238042Y0141285D02*
X0230264Y0141285D01*
X0230264Y0140287D02*
X0238042Y0140287D01*
X0238042Y0139288D02*
X0230134Y0139288D01*
X0230126Y0138290D02*
X0238042Y0138290D01*
X0238042Y0137291D02*
X0230125Y0137291D01*
X0230125Y0136293D02*
X0238042Y0136293D01*
X0238042Y0135294D02*
X0230125Y0135294D01*
X0230125Y0134296D02*
X0238042Y0134296D01*
X0238042Y0133297D02*
X0230125Y0133297D01*
X0230087Y0132299D02*
X0238042Y0132299D01*
X0238042Y0131300D02*
X0229674Y0131300D01*
X0229260Y0130302D02*
X0238042Y0130302D01*
X0238042Y0129303D02*
X0228761Y0129303D01*
X0227763Y0128305D02*
X0238042Y0128305D01*
X0238042Y0127306D02*
X0226764Y0127306D01*
X0224505Y0126308D02*
X0238042Y0126308D01*
X0238042Y0125309D02*
X0225163Y0125309D01*
X0226574Y0124311D02*
X0238042Y0124311D01*
X0238042Y0123312D02*
X0227574Y0123312D01*
X0228306Y0122314D02*
X0238042Y0122314D01*
X0238042Y0121315D02*
X0228720Y0121315D01*
X0229136Y0120317D02*
X0238042Y0120317D01*
X0238042Y0119318D02*
X0229338Y0119318D01*
X0229338Y0118320D02*
X0238042Y0118320D01*
X0238042Y0117321D02*
X0229340Y0117321D01*
X0229338Y0116323D02*
X0238042Y0116323D01*
X0238042Y0115324D02*
X0229338Y0115324D01*
X0229338Y0114326D02*
X0238042Y0114326D01*
X0238042Y0113327D02*
X0229338Y0113327D01*
X0229338Y0112329D02*
X0238042Y0112329D01*
X0238042Y0111330D02*
X0229338Y0111330D01*
X0229501Y0110332D02*
X0238042Y0110332D01*
X0238042Y0109333D02*
X0229638Y0109333D01*
X0229638Y0108335D02*
X0238042Y0108335D01*
X0238042Y0107336D02*
X0229638Y0107336D01*
X0229487Y0106338D02*
X0238042Y0106338D01*
X0238042Y0105339D02*
X0229074Y0105339D01*
X0228660Y0104341D02*
X0238042Y0104341D01*
X0238042Y0103342D02*
X0228067Y0103342D01*
X0227068Y0102343D02*
X0238042Y0102343D01*
X0238042Y0101345D02*
X0226070Y0101345D01*
X0223702Y0100346D02*
X0238042Y0100346D01*
X0238042Y0099348D02*
X0212514Y0099348D01*
X0213513Y0100346D02*
X0218973Y0100346D01*
X0216606Y0101345D02*
X0214138Y0101345D01*
X0214552Y0102343D02*
X0215607Y0102343D01*
X0210368Y0098349D02*
X0238042Y0098349D01*
X0238042Y0097351D02*
X0203935Y0097351D01*
X0202936Y0096352D02*
X0238042Y0096352D01*
X0238042Y0095354D02*
X0201500Y0095354D01*
X0185545Y0095354D02*
X0171621Y0095354D01*
X0171621Y0094355D02*
X0238042Y0094355D01*
X0238042Y0093357D02*
X0171621Y0093357D01*
X0171621Y0092358D02*
X0238042Y0092358D01*
X0238042Y0091360D02*
X0171621Y0091360D01*
X0171621Y0090361D02*
X0238042Y0090361D01*
X0238042Y0089363D02*
X0171621Y0089363D01*
X0171621Y0088364D02*
X0238042Y0088364D01*
X0238042Y0087366D02*
X0171621Y0087366D01*
X0171621Y0086367D02*
X0238042Y0086367D01*
X0238042Y0085369D02*
X0171621Y0085369D01*
X0171621Y0084370D02*
X0238042Y0084370D01*
X0238042Y0083372D02*
X0171657Y0083372D01*
X0171665Y0082373D02*
X0238042Y0082373D01*
X0238042Y0081375D02*
X0171657Y0081375D01*
X0171657Y0080376D02*
X0238042Y0080376D01*
X0238042Y0079378D02*
X0220966Y0079378D01*
X0223377Y0078379D02*
X0238042Y0078379D01*
X0238042Y0077381D02*
X0224760Y0077381D01*
X0225759Y0076382D02*
X0238042Y0076382D01*
X0238042Y0075384D02*
X0226645Y0075384D01*
X0227059Y0074385D02*
X0238042Y0074385D01*
X0238042Y0073387D02*
X0227472Y0073387D01*
X0227886Y0072388D02*
X0238042Y0072388D01*
X0238042Y0071390D02*
X0227936Y0071390D01*
X0227936Y0070391D02*
X0238042Y0070391D01*
X0238042Y0069393D02*
X0227936Y0069393D01*
X0227815Y0068394D02*
X0238042Y0068394D01*
X0238042Y0067396D02*
X0227401Y0067396D01*
X0226988Y0066397D02*
X0238042Y0066397D01*
X0238042Y0065399D02*
X0226936Y0065399D01*
X0226936Y0064400D02*
X0238042Y0064400D01*
X0238042Y0063402D02*
X0226936Y0063402D01*
X0226936Y0062403D02*
X0238042Y0062403D01*
X0238042Y0061405D02*
X0226936Y0061405D01*
X0226936Y0060406D02*
X0238042Y0060406D01*
X0238042Y0059407D02*
X0226936Y0059407D01*
X0226936Y0058409D02*
X0238042Y0058409D01*
X0238042Y0057410D02*
X0226936Y0057410D01*
X0226936Y0056412D02*
X0238042Y0056412D01*
X0238042Y0055413D02*
X0226936Y0055413D01*
X0226936Y0054415D02*
X0238042Y0054415D01*
X0238042Y0053416D02*
X0226936Y0053416D01*
X0226936Y0052418D02*
X0238042Y0052418D01*
X0238042Y0051419D02*
X0226936Y0051419D01*
X0226936Y0050421D02*
X0238042Y0050421D01*
X0238042Y0049422D02*
X0226936Y0049422D01*
X0227000Y0048424D02*
X0238042Y0048424D01*
X0238042Y0047425D02*
X0227414Y0047425D01*
X0227828Y0046427D02*
X0238042Y0046427D01*
X0238042Y0045428D02*
X0227936Y0045428D01*
X0227936Y0044430D02*
X0238042Y0044430D01*
X0238042Y0043431D02*
X0227936Y0043431D01*
X0227873Y0042433D02*
X0238042Y0042433D01*
X0238042Y0041434D02*
X0227460Y0041434D01*
X0227046Y0040436D02*
X0238042Y0040436D01*
X0238042Y0039437D02*
X0226632Y0039437D01*
X0225728Y0038439D02*
X0238042Y0038439D01*
X0238042Y0037440D02*
X0224730Y0037440D01*
X0223302Y0036442D02*
X0238042Y0036442D01*
X0238042Y0035443D02*
X0220892Y0035443D01*
X0216980Y0035443D02*
X0136550Y0035443D01*
X0136550Y0034445D02*
X0238042Y0034445D01*
X0238042Y0033446D02*
X0136550Y0033446D01*
X0136550Y0032448D02*
X0238042Y0032448D01*
X0238042Y0031449D02*
X0223627Y0031449D01*
X0223531Y0031489D02*
X0220247Y0031489D01*
X0217212Y0030232D01*
X0214890Y0027910D01*
X0213633Y0024875D01*
X0213633Y0021591D01*
X0214890Y0018556D01*
X0217212Y0016234D01*
X0220247Y0014977D01*
X0223531Y0014977D01*
X0226565Y0016234D01*
X0228888Y0018556D01*
X0230145Y0021591D01*
X0230145Y0024875D01*
X0228888Y0027910D01*
X0226565Y0030232D01*
X0223531Y0031489D01*
X0226037Y0030451D02*
X0238042Y0030451D01*
X0238042Y0029452D02*
X0227345Y0029452D01*
X0228344Y0028454D02*
X0238042Y0028454D01*
X0238042Y0027455D02*
X0229076Y0027455D01*
X0229490Y0026457D02*
X0238042Y0026457D01*
X0238042Y0025458D02*
X0229903Y0025458D01*
X0230145Y0024460D02*
X0238042Y0024460D01*
X0238042Y0023461D02*
X0230145Y0023461D01*
X0230145Y0022463D02*
X0238042Y0022463D01*
X0238042Y0021464D02*
X0230092Y0021464D01*
X0229679Y0020466D02*
X0238042Y0020466D01*
X0238042Y0019467D02*
X0229265Y0019467D01*
X0228800Y0018469D02*
X0238042Y0018469D01*
X0238042Y0017470D02*
X0227801Y0017470D01*
X0226803Y0016472D02*
X0238042Y0016472D01*
X0238042Y0015473D02*
X0224728Y0015473D01*
X0219049Y0015473D02*
X0174739Y0015473D01*
X0174739Y0016472D02*
X0216975Y0016472D01*
X0215976Y0017470D02*
X0174739Y0017470D01*
X0174739Y0018469D02*
X0214978Y0018469D01*
X0214513Y0019467D02*
X0174739Y0019467D01*
X0174739Y0020466D02*
X0214099Y0020466D01*
X0213685Y0021464D02*
X0174739Y0021464D01*
X0174737Y0022463D02*
X0213633Y0022463D01*
X0213633Y0023461D02*
X0174324Y0023461D01*
X0173910Y0024460D02*
X0213633Y0024460D01*
X0213874Y0025458D02*
X0173031Y0025458D01*
X0171883Y0026457D02*
X0214288Y0026457D01*
X0214702Y0027455D02*
X0136550Y0027455D01*
X0136550Y0028454D02*
X0215434Y0028454D01*
X0216432Y0029452D02*
X0136550Y0029452D01*
X0136550Y0030451D02*
X0217740Y0030451D01*
X0220151Y0031449D02*
X0136550Y0031449D01*
X0136550Y0036442D02*
X0214570Y0036442D01*
X0213143Y0037440D02*
X0136550Y0037440D01*
X0136550Y0038439D02*
X0212144Y0038439D01*
X0211240Y0039437D02*
X0136550Y0039437D01*
X0136550Y0040436D02*
X0210826Y0040436D01*
X0210412Y0041434D02*
X0136550Y0041434D01*
X0136550Y0042433D02*
X0209999Y0042433D01*
X0209936Y0043431D02*
X0136550Y0043431D01*
X0136550Y0044430D02*
X0209936Y0044430D01*
X0209936Y0045428D02*
X0136550Y0045428D01*
X0136550Y0046427D02*
X0210045Y0046427D01*
X0210458Y0047425D02*
X0136550Y0047425D01*
X0136550Y0048424D02*
X0210872Y0048424D01*
X0210936Y0049422D02*
X0136550Y0049422D01*
X0136550Y0050421D02*
X0210936Y0050421D01*
X0210936Y0051419D02*
X0136550Y0051419D01*
X0136550Y0052418D02*
X0210936Y0052418D01*
X0210936Y0053416D02*
X0136550Y0053416D01*
X0136550Y0054415D02*
X0210936Y0054415D01*
X0210936Y0055413D02*
X0136550Y0055413D01*
X0136550Y0056412D02*
X0210936Y0056412D01*
X0210936Y0057410D02*
X0136550Y0057410D01*
X0136550Y0058409D02*
X0210936Y0058409D01*
X0210936Y0059407D02*
X0136550Y0059407D01*
X0136550Y0060406D02*
X0210936Y0060406D01*
X0210936Y0061405D02*
X0136550Y0061405D01*
X0136550Y0062403D02*
X0210936Y0062403D01*
X0216906Y0079378D02*
X0171657Y0079378D01*
X0155507Y0079378D02*
X0116542Y0079378D01*
X0116542Y0080376D02*
X0155507Y0080376D01*
X0155507Y0081375D02*
X0116542Y0081375D01*
X0116542Y0082373D02*
X0155507Y0082373D01*
X0155507Y0083372D02*
X0116542Y0083372D01*
X0116542Y0084370D02*
X0155621Y0084370D01*
X0155621Y0085369D02*
X0116542Y0085369D01*
X0116542Y0086367D02*
X0155621Y0086367D01*
X0155507Y0078379D02*
X0116542Y0078379D01*
X0116542Y0077381D02*
X0155507Y0077381D01*
X0155520Y0076382D02*
X0116542Y0076382D01*
X0116542Y0075384D02*
X0155621Y0075384D01*
X0155621Y0074385D02*
X0116542Y0074385D01*
X0116542Y0073387D02*
X0155621Y0073387D01*
X0155621Y0072388D02*
X0116542Y0072388D01*
X0116542Y0071390D02*
X0155621Y0071390D01*
X0155621Y0070391D02*
X0132179Y0070391D01*
X0134214Y0069393D02*
X0155621Y0069393D01*
X0155825Y0068394D02*
X0135213Y0068394D01*
X0135875Y0067396D02*
X0156238Y0067396D01*
X0156652Y0066397D02*
X0136288Y0066397D01*
X0136550Y0065399D02*
X0157386Y0065399D01*
X0158384Y0064400D02*
X0136550Y0064400D01*
X0136550Y0063402D02*
X0159798Y0063402D01*
X0130550Y0063402D02*
X0117558Y0063402D01*
X0117558Y0064400D02*
X0130550Y0064400D01*
X0130550Y0064572D02*
X0130550Y0021264D01*
X0168739Y0021264D01*
X0168739Y0013646D01*
X0131849Y0013646D01*
X0071101Y0013449D01*
X0071101Y0056698D01*
X0117558Y0056698D01*
X0117558Y0064572D01*
X0130550Y0064572D01*
X0130550Y0062403D02*
X0117558Y0062403D01*
X0117558Y0061405D02*
X0130550Y0061405D01*
X0130550Y0060406D02*
X0117558Y0060406D01*
X0117558Y0059407D02*
X0130550Y0059407D01*
X0130550Y0058409D02*
X0117558Y0058409D01*
X0117558Y0057410D02*
X0130550Y0057410D01*
X0130550Y0056412D02*
X0071101Y0056412D01*
X0071101Y0055413D02*
X0130550Y0055413D01*
X0130550Y0054415D02*
X0071101Y0054415D01*
X0071101Y0053416D02*
X0130550Y0053416D01*
X0130550Y0052418D02*
X0071101Y0052418D01*
X0071101Y0051419D02*
X0130550Y0051419D01*
X0130550Y0050421D02*
X0071101Y0050421D01*
X0071101Y0049422D02*
X0130550Y0049422D01*
X0130550Y0048424D02*
X0071101Y0048424D01*
X0071101Y0047425D02*
X0130550Y0047425D01*
X0130550Y0046427D02*
X0071101Y0046427D01*
X0071101Y0045428D02*
X0130550Y0045428D01*
X0130550Y0044430D02*
X0071101Y0044430D01*
X0071101Y0043431D02*
X0130550Y0043431D01*
X0130550Y0042433D02*
X0071101Y0042433D01*
X0071101Y0041434D02*
X0094340Y0041434D01*
X0093763Y0041195D02*
X0091722Y0039154D01*
X0090617Y0036487D01*
X0090617Y0033601D01*
X0091722Y0030934D01*
X0093763Y0028893D01*
X0096430Y0027788D01*
X0099316Y0027788D01*
X0101983Y0028893D01*
X0104024Y0030934D01*
X0105129Y0033601D01*
X0105129Y0036487D01*
X0104024Y0039154D01*
X0101983Y0041195D01*
X0099316Y0042300D01*
X0096430Y0042300D01*
X0093763Y0041195D01*
X0093003Y0040436D02*
X0071101Y0040436D01*
X0071101Y0039437D02*
X0092005Y0039437D01*
X0091425Y0038439D02*
X0071101Y0038439D01*
X0071101Y0037440D02*
X0091012Y0037440D01*
X0090617Y0036442D02*
X0071101Y0036442D01*
X0071101Y0035443D02*
X0090617Y0035443D01*
X0090617Y0034445D02*
X0071101Y0034445D01*
X0071101Y0033446D02*
X0090681Y0033446D01*
X0091095Y0032448D02*
X0071101Y0032448D01*
X0071101Y0031449D02*
X0091508Y0031449D01*
X0092205Y0030451D02*
X0071101Y0030451D01*
X0071101Y0029452D02*
X0093203Y0029452D01*
X0094823Y0028454D02*
X0071101Y0028454D01*
X0071101Y0027455D02*
X0130550Y0027455D01*
X0130550Y0026457D02*
X0071101Y0026457D01*
X0071101Y0025458D02*
X0130550Y0025458D01*
X0130550Y0024460D02*
X0071101Y0024460D01*
X0071101Y0023461D02*
X0130550Y0023461D01*
X0130550Y0022463D02*
X0071101Y0022463D01*
X0071101Y0021464D02*
X0130550Y0021464D01*
X0130550Y0028454D02*
X0100923Y0028454D01*
X0102543Y0029452D02*
X0130550Y0029452D01*
X0130550Y0030451D02*
X0103541Y0030451D01*
X0104238Y0031449D02*
X0130550Y0031449D01*
X0130550Y0032448D02*
X0104651Y0032448D01*
X0105065Y0033446D02*
X0130550Y0033446D01*
X0130550Y0034445D02*
X0105129Y0034445D01*
X0105129Y0035443D02*
X0130550Y0035443D01*
X0130550Y0036442D02*
X0105129Y0036442D01*
X0104734Y0037440D02*
X0130550Y0037440D01*
X0130550Y0038439D02*
X0104321Y0038439D01*
X0103741Y0039437D02*
X0130550Y0039437D01*
X0130550Y0040436D02*
X0102743Y0040436D01*
X0101406Y0041434D02*
X0130550Y0041434D01*
X0168739Y0020466D02*
X0071101Y0020466D01*
X0071101Y0019467D02*
X0168739Y0019467D01*
X0168739Y0018469D02*
X0071101Y0018469D01*
X0071101Y0017470D02*
X0168739Y0017470D01*
X0168739Y0016472D02*
X0071101Y0016472D01*
X0071101Y0015473D02*
X0168739Y0015473D01*
X0168739Y0014474D02*
X0071101Y0014474D01*
X0071101Y0013476D02*
X0079280Y0013476D01*
X0062503Y0090678D02*
X0062503Y0124568D01*
X0084326Y0124568D01*
X0084326Y0121877D01*
X0085620Y0118753D01*
X0087826Y0116547D01*
X0087826Y0108748D01*
X0089044Y0105808D01*
X0091294Y0103557D01*
X0094234Y0102339D01*
X0100542Y0102339D01*
X0100542Y0090167D01*
X0100517Y0090178D01*
X0098784Y0090178D01*
X0097577Y0090678D01*
X0062503Y0090678D01*
X0062503Y0091360D02*
X0100542Y0091360D01*
X0100542Y0092358D02*
X0062503Y0092358D01*
X0062503Y0093357D02*
X0100542Y0093357D01*
X0100542Y0094355D02*
X0062503Y0094355D01*
X0062503Y0095354D02*
X0100542Y0095354D01*
X0100542Y0096352D02*
X0062503Y0096352D01*
X0062503Y0097351D02*
X0100542Y0097351D01*
X0100542Y0098349D02*
X0062503Y0098349D01*
X0062503Y0099348D02*
X0100542Y0099348D01*
X0100542Y0100346D02*
X0062503Y0100346D01*
X0062503Y0101345D02*
X0100542Y0101345D01*
X0094224Y0102343D02*
X0062503Y0102343D01*
X0062503Y0103342D02*
X0091814Y0103342D01*
X0090511Y0104341D02*
X0062503Y0104341D01*
X0062503Y0105339D02*
X0089512Y0105339D01*
X0088824Y0106338D02*
X0062503Y0106338D01*
X0062503Y0107336D02*
X0088411Y0107336D01*
X0087997Y0108335D02*
X0062503Y0108335D01*
X0062503Y0109333D02*
X0087826Y0109333D01*
X0087826Y0110332D02*
X0062503Y0110332D01*
X0062503Y0111330D02*
X0087826Y0111330D01*
X0087826Y0112329D02*
X0062503Y0112329D01*
X0062503Y0113327D02*
X0087826Y0113327D01*
X0087826Y0114326D02*
X0062503Y0114326D01*
X0062503Y0115324D02*
X0087826Y0115324D01*
X0087826Y0116323D02*
X0062503Y0116323D01*
X0062503Y0117321D02*
X0087051Y0117321D01*
X0086053Y0118320D02*
X0062503Y0118320D01*
X0062503Y0119318D02*
X0085386Y0119318D01*
X0084972Y0120317D02*
X0062503Y0120317D01*
X0062503Y0121315D02*
X0084558Y0121315D01*
X0084326Y0122314D02*
X0062503Y0122314D01*
X0062503Y0123312D02*
X0084326Y0123312D01*
X0084326Y0124311D02*
X0062503Y0124311D01*
X0052503Y0142568D02*
X0052503Y0174351D01*
X0084326Y0174351D01*
X0084326Y0171680D01*
X0085620Y0168556D01*
X0088011Y0166165D01*
X0091135Y0164871D01*
X0100424Y0164871D01*
X0100424Y0142068D01*
X0098823Y0142068D01*
X0097616Y0142568D01*
X0052503Y0142568D01*
X0052503Y0143282D02*
X0100424Y0143282D01*
X0100424Y0142284D02*
X0098301Y0142284D01*
X0100424Y0144281D02*
X0052503Y0144281D01*
X0052503Y0145279D02*
X0100424Y0145279D01*
X0100424Y0146278D02*
X0052503Y0146278D01*
X0052503Y0147276D02*
X0100424Y0147276D01*
X0100424Y0148275D02*
X0052503Y0148275D01*
X0052503Y0149274D02*
X0100424Y0149274D01*
X0100424Y0150272D02*
X0052503Y0150272D01*
X0052503Y0151271D02*
X0100424Y0151271D01*
X0100424Y0152269D02*
X0052503Y0152269D01*
X0052503Y0153268D02*
X0100424Y0153268D01*
X0100424Y0154266D02*
X0052503Y0154266D01*
X0052503Y0155265D02*
X0100424Y0155265D01*
X0100424Y0156263D02*
X0052503Y0156263D01*
X0052503Y0157262D02*
X0100424Y0157262D01*
X0100424Y0158260D02*
X0052503Y0158260D01*
X0052503Y0159259D02*
X0100424Y0159259D01*
X0100424Y0160257D02*
X0052503Y0160257D01*
X0052503Y0161256D02*
X0100424Y0161256D01*
X0100424Y0162254D02*
X0052503Y0162254D01*
X0052503Y0163253D02*
X0100424Y0163253D01*
X0100424Y0164251D02*
X0052503Y0164251D01*
X0052503Y0165250D02*
X0090220Y0165250D01*
X0087928Y0166248D02*
X0052503Y0166248D01*
X0052503Y0167247D02*
X0086929Y0167247D01*
X0085930Y0168245D02*
X0052503Y0168245D01*
X0052503Y0169244D02*
X0085335Y0169244D01*
X0084921Y0170242D02*
X0052503Y0170242D01*
X0052503Y0171241D02*
X0084508Y0171241D01*
X0084326Y0172239D02*
X0052503Y0172239D01*
X0052503Y0173238D02*
X0084326Y0173238D01*
X0084326Y0174236D02*
X0052503Y0174236D01*
X0117164Y0096619D02*
X0134605Y0096619D01*
X0134605Y0092446D01*
X0117164Y0092446D01*
X0117164Y0096619D01*
X0117164Y0096352D02*
X0134605Y0096352D01*
X0134605Y0095354D02*
X0117164Y0095354D01*
X0117164Y0094355D02*
X0134605Y0094355D01*
X0134605Y0093357D02*
X0117164Y0093357D01*
X0100542Y0090361D02*
X0098341Y0090361D01*
X0142172Y0103342D02*
X0181290Y0103342D01*
X0181290Y0102343D02*
X0165858Y0102343D01*
X0168201Y0101345D02*
X0181290Y0101345D01*
X0181517Y0100346D02*
X0169199Y0100346D01*
X0170198Y0099348D02*
X0181931Y0099348D01*
X0182344Y0098349D02*
X0170732Y0098349D01*
X0171145Y0097351D02*
X0183111Y0097351D01*
X0184109Y0096352D02*
X0171559Y0096352D01*
X0181400Y0104341D02*
X0142063Y0104341D01*
X0141649Y0105339D02*
X0181813Y0105339D01*
X0182227Y0106338D02*
X0141236Y0106338D01*
X0141579Y0107336D02*
X0182015Y0107336D01*
X0181602Y0108335D02*
X0141993Y0108335D01*
X0142172Y0109333D02*
X0181412Y0109333D01*
X0181412Y0110332D02*
X0142172Y0110332D01*
X0142172Y0111330D02*
X0181412Y0111330D01*
X0181579Y0112329D02*
X0142016Y0112329D01*
X0141602Y0113327D02*
X0181993Y0113327D01*
X0182250Y0114326D02*
X0141213Y0114326D01*
X0141627Y0115324D02*
X0181836Y0115324D01*
X0181423Y0116323D02*
X0142040Y0116323D01*
X0142172Y0117321D02*
X0181290Y0117321D01*
X0181290Y0118320D02*
X0155647Y0118320D01*
X0158058Y0119318D02*
X0181290Y0119318D01*
X0181494Y0120317D02*
X0159066Y0120317D01*
X0160064Y0121315D02*
X0181908Y0121315D01*
X0182202Y0122314D02*
X0160630Y0122314D01*
X0161044Y0123312D02*
X0181789Y0123312D01*
X0181375Y0124311D02*
X0161457Y0124311D01*
X0161542Y0125309D02*
X0181290Y0125309D01*
X0181290Y0126308D02*
X0161542Y0126308D01*
X0161542Y0127306D02*
X0181290Y0127306D01*
X0181542Y0128305D02*
X0161542Y0128305D01*
X0161542Y0129303D02*
X0181955Y0129303D01*
X0182155Y0130302D02*
X0161542Y0130302D01*
X0161542Y0131300D02*
X0181742Y0131300D01*
X0181328Y0132299D02*
X0161542Y0132299D01*
X0161542Y0133297D02*
X0181290Y0133297D01*
X0169312Y0134296D02*
X0161542Y0134296D01*
X0161542Y0135294D02*
X0167214Y0135294D01*
X0166215Y0136293D02*
X0161542Y0136293D01*
X0161542Y0137291D02*
X0165208Y0137291D01*
X0164785Y0138290D02*
X0161542Y0138290D01*
X0161542Y0139288D02*
X0164369Y0139288D01*
X0163968Y0140287D02*
X0161542Y0140287D01*
X0161542Y0141285D02*
X0163968Y0141285D01*
X0163966Y0142284D02*
X0161542Y0142284D01*
X0161542Y0143282D02*
X0163962Y0143282D01*
X0163958Y0144281D02*
X0161542Y0144281D01*
X0161542Y0145279D02*
X0163954Y0145279D01*
X0163950Y0146278D02*
X0161542Y0146278D01*
X0161542Y0147276D02*
X0163946Y0147276D01*
X0163942Y0148275D02*
X0161542Y0148275D01*
X0161542Y0149274D02*
X0163938Y0149274D01*
X0163933Y0150272D02*
X0161542Y0150272D01*
X0161542Y0151271D02*
X0163929Y0151271D01*
X0163925Y0152269D02*
X0161149Y0152269D01*
X0160736Y0153268D02*
X0163921Y0153268D01*
X0163917Y0154266D02*
X0160319Y0154266D01*
X0159320Y0155265D02*
X0163913Y0155265D01*
X0163909Y0156263D02*
X0158322Y0156263D01*
X0156262Y0157262D02*
X0163905Y0157262D01*
X0174739Y0014474D02*
X0238042Y0014474D01*
X0238042Y0013476D02*
X0174739Y0013476D01*
D27*
X0043503Y0015359D02*
X0043503Y0021658D01*
X0043542Y0021658D01*
X0043503Y0021658D02*
X0043503Y0046855D01*
X0043503Y0183351D01*
X0095865Y0183351D01*
X0095826Y0133568D02*
X0053503Y0133568D01*
X0053503Y0046855D01*
X0053503Y0021658D01*
X0053503Y0015359D01*
X0063503Y0015359D02*
X0063503Y0021658D01*
X0063503Y0046855D01*
X0063503Y0081678D01*
X0095786Y0081678D01*
X0095786Y0081619D01*
M02*
