G75*
%MOIN*%
%OFA0B0*%
%FSLAX25Y25*%
%IPPOS*%
%LPD*%
%AMOC8*
5,1,8,0,0,1.08239X$1,22.5*
%
%ADD10C,0.00000*%
%ADD11C,0.00300*%
%ADD12C,0.00600*%
%ADD13C,0.00400*%
%ADD14C,0.00500*%
%ADD15R,0.03000X0.42000*%
%ADD16R,0.02000X0.07500*%
%ADD17R,0.02000X0.03000*%
%ADD18C,0.01000*%
%ADD19C,0.02400*%
%ADD20R,0.09000X0.02500*%
D10*
X0027007Y0007485D02*
X0027007Y0216146D01*
X0243542Y0216146D01*
X0243542Y0007485D01*
X0027007Y0007485D01*
X0095117Y0035044D02*
X0095119Y0035149D01*
X0095125Y0035254D01*
X0095135Y0035358D01*
X0095149Y0035462D01*
X0095167Y0035566D01*
X0095189Y0035668D01*
X0095214Y0035770D01*
X0095244Y0035871D01*
X0095277Y0035970D01*
X0095314Y0036068D01*
X0095355Y0036165D01*
X0095400Y0036260D01*
X0095448Y0036353D01*
X0095499Y0036445D01*
X0095555Y0036534D01*
X0095613Y0036621D01*
X0095675Y0036706D01*
X0095739Y0036789D01*
X0095807Y0036869D01*
X0095878Y0036946D01*
X0095952Y0037020D01*
X0096029Y0037092D01*
X0096108Y0037161D01*
X0096190Y0037226D01*
X0096274Y0037289D01*
X0096361Y0037348D01*
X0096450Y0037404D01*
X0096541Y0037457D01*
X0096634Y0037506D01*
X0096728Y0037551D01*
X0096824Y0037593D01*
X0096922Y0037631D01*
X0097021Y0037665D01*
X0097122Y0037696D01*
X0097223Y0037722D01*
X0097326Y0037745D01*
X0097429Y0037764D01*
X0097533Y0037779D01*
X0097637Y0037790D01*
X0097742Y0037797D01*
X0097847Y0037800D01*
X0097952Y0037799D01*
X0098057Y0037794D01*
X0098161Y0037785D01*
X0098265Y0037772D01*
X0098369Y0037755D01*
X0098472Y0037734D01*
X0098574Y0037709D01*
X0098675Y0037681D01*
X0098774Y0037648D01*
X0098873Y0037612D01*
X0098970Y0037572D01*
X0099065Y0037529D01*
X0099159Y0037481D01*
X0099251Y0037431D01*
X0099341Y0037377D01*
X0099429Y0037319D01*
X0099514Y0037258D01*
X0099597Y0037194D01*
X0099678Y0037127D01*
X0099756Y0037057D01*
X0099831Y0036983D01*
X0099903Y0036908D01*
X0099973Y0036829D01*
X0100039Y0036748D01*
X0100103Y0036664D01*
X0100163Y0036578D01*
X0100219Y0036490D01*
X0100273Y0036399D01*
X0100323Y0036307D01*
X0100369Y0036213D01*
X0100412Y0036117D01*
X0100451Y0036019D01*
X0100486Y0035921D01*
X0100517Y0035820D01*
X0100545Y0035719D01*
X0100569Y0035617D01*
X0100589Y0035514D01*
X0100605Y0035410D01*
X0100617Y0035306D01*
X0100625Y0035201D01*
X0100629Y0035096D01*
X0100629Y0034992D01*
X0100625Y0034887D01*
X0100617Y0034782D01*
X0100605Y0034678D01*
X0100589Y0034574D01*
X0100569Y0034471D01*
X0100545Y0034369D01*
X0100517Y0034268D01*
X0100486Y0034167D01*
X0100451Y0034069D01*
X0100412Y0033971D01*
X0100369Y0033875D01*
X0100323Y0033781D01*
X0100273Y0033689D01*
X0100219Y0033598D01*
X0100163Y0033510D01*
X0100103Y0033424D01*
X0100039Y0033340D01*
X0099973Y0033259D01*
X0099903Y0033180D01*
X0099831Y0033105D01*
X0099756Y0033031D01*
X0099678Y0032961D01*
X0099597Y0032894D01*
X0099514Y0032830D01*
X0099429Y0032769D01*
X0099341Y0032711D01*
X0099251Y0032657D01*
X0099159Y0032607D01*
X0099065Y0032559D01*
X0098970Y0032516D01*
X0098873Y0032476D01*
X0098774Y0032440D01*
X0098675Y0032407D01*
X0098574Y0032379D01*
X0098472Y0032354D01*
X0098369Y0032333D01*
X0098265Y0032316D01*
X0098161Y0032303D01*
X0098057Y0032294D01*
X0097952Y0032289D01*
X0097847Y0032288D01*
X0097742Y0032291D01*
X0097637Y0032298D01*
X0097533Y0032309D01*
X0097429Y0032324D01*
X0097326Y0032343D01*
X0097223Y0032366D01*
X0097122Y0032392D01*
X0097021Y0032423D01*
X0096922Y0032457D01*
X0096824Y0032495D01*
X0096728Y0032537D01*
X0096634Y0032582D01*
X0096541Y0032631D01*
X0096450Y0032684D01*
X0096361Y0032740D01*
X0096274Y0032799D01*
X0096190Y0032862D01*
X0096108Y0032927D01*
X0096029Y0032996D01*
X0095952Y0033068D01*
X0095878Y0033142D01*
X0095807Y0033219D01*
X0095739Y0033299D01*
X0095675Y0033382D01*
X0095613Y0033467D01*
X0095555Y0033554D01*
X0095499Y0033643D01*
X0095448Y0033735D01*
X0095400Y0033828D01*
X0095355Y0033923D01*
X0095314Y0034020D01*
X0095277Y0034118D01*
X0095244Y0034217D01*
X0095214Y0034318D01*
X0095189Y0034420D01*
X0095167Y0034522D01*
X0095149Y0034626D01*
X0095135Y0034730D01*
X0095125Y0034834D01*
X0095119Y0034939D01*
X0095117Y0035044D01*
X0219133Y0023233D02*
X0219135Y0023338D01*
X0219141Y0023443D01*
X0219151Y0023547D01*
X0219165Y0023651D01*
X0219183Y0023755D01*
X0219205Y0023857D01*
X0219230Y0023959D01*
X0219260Y0024060D01*
X0219293Y0024159D01*
X0219330Y0024257D01*
X0219371Y0024354D01*
X0219416Y0024449D01*
X0219464Y0024542D01*
X0219515Y0024634D01*
X0219571Y0024723D01*
X0219629Y0024810D01*
X0219691Y0024895D01*
X0219755Y0024978D01*
X0219823Y0025058D01*
X0219894Y0025135D01*
X0219968Y0025209D01*
X0220045Y0025281D01*
X0220124Y0025350D01*
X0220206Y0025415D01*
X0220290Y0025478D01*
X0220377Y0025537D01*
X0220466Y0025593D01*
X0220557Y0025646D01*
X0220650Y0025695D01*
X0220744Y0025740D01*
X0220840Y0025782D01*
X0220938Y0025820D01*
X0221037Y0025854D01*
X0221138Y0025885D01*
X0221239Y0025911D01*
X0221342Y0025934D01*
X0221445Y0025953D01*
X0221549Y0025968D01*
X0221653Y0025979D01*
X0221758Y0025986D01*
X0221863Y0025989D01*
X0221968Y0025988D01*
X0222073Y0025983D01*
X0222177Y0025974D01*
X0222281Y0025961D01*
X0222385Y0025944D01*
X0222488Y0025923D01*
X0222590Y0025898D01*
X0222691Y0025870D01*
X0222790Y0025837D01*
X0222889Y0025801D01*
X0222986Y0025761D01*
X0223081Y0025718D01*
X0223175Y0025670D01*
X0223267Y0025620D01*
X0223357Y0025566D01*
X0223445Y0025508D01*
X0223530Y0025447D01*
X0223613Y0025383D01*
X0223694Y0025316D01*
X0223772Y0025246D01*
X0223847Y0025172D01*
X0223919Y0025097D01*
X0223989Y0025018D01*
X0224055Y0024937D01*
X0224119Y0024853D01*
X0224179Y0024767D01*
X0224235Y0024679D01*
X0224289Y0024588D01*
X0224339Y0024496D01*
X0224385Y0024402D01*
X0224428Y0024306D01*
X0224467Y0024208D01*
X0224502Y0024110D01*
X0224533Y0024009D01*
X0224561Y0023908D01*
X0224585Y0023806D01*
X0224605Y0023703D01*
X0224621Y0023599D01*
X0224633Y0023495D01*
X0224641Y0023390D01*
X0224645Y0023285D01*
X0224645Y0023181D01*
X0224641Y0023076D01*
X0224633Y0022971D01*
X0224621Y0022867D01*
X0224605Y0022763D01*
X0224585Y0022660D01*
X0224561Y0022558D01*
X0224533Y0022457D01*
X0224502Y0022356D01*
X0224467Y0022258D01*
X0224428Y0022160D01*
X0224385Y0022064D01*
X0224339Y0021970D01*
X0224289Y0021878D01*
X0224235Y0021787D01*
X0224179Y0021699D01*
X0224119Y0021613D01*
X0224055Y0021529D01*
X0223989Y0021448D01*
X0223919Y0021369D01*
X0223847Y0021294D01*
X0223772Y0021220D01*
X0223694Y0021150D01*
X0223613Y0021083D01*
X0223530Y0021019D01*
X0223445Y0020958D01*
X0223357Y0020900D01*
X0223267Y0020846D01*
X0223175Y0020796D01*
X0223081Y0020748D01*
X0222986Y0020705D01*
X0222889Y0020665D01*
X0222790Y0020629D01*
X0222691Y0020596D01*
X0222590Y0020568D01*
X0222488Y0020543D01*
X0222385Y0020522D01*
X0222281Y0020505D01*
X0222177Y0020492D01*
X0222073Y0020483D01*
X0221968Y0020478D01*
X0221863Y0020477D01*
X0221758Y0020480D01*
X0221653Y0020487D01*
X0221549Y0020498D01*
X0221445Y0020513D01*
X0221342Y0020532D01*
X0221239Y0020555D01*
X0221138Y0020581D01*
X0221037Y0020612D01*
X0220938Y0020646D01*
X0220840Y0020684D01*
X0220744Y0020726D01*
X0220650Y0020771D01*
X0220557Y0020820D01*
X0220466Y0020873D01*
X0220377Y0020929D01*
X0220290Y0020988D01*
X0220206Y0021051D01*
X0220124Y0021116D01*
X0220045Y0021185D01*
X0219968Y0021257D01*
X0219894Y0021331D01*
X0219823Y0021408D01*
X0219755Y0021488D01*
X0219691Y0021571D01*
X0219629Y0021656D01*
X0219571Y0021743D01*
X0219515Y0021832D01*
X0219464Y0021924D01*
X0219416Y0022017D01*
X0219371Y0022112D01*
X0219330Y0022209D01*
X0219293Y0022307D01*
X0219260Y0022406D01*
X0219230Y0022507D01*
X0219205Y0022609D01*
X0219183Y0022711D01*
X0219165Y0022815D01*
X0219151Y0022919D01*
X0219141Y0023023D01*
X0219135Y0023128D01*
X0219133Y0023233D01*
X0213227Y0198430D02*
X0213229Y0198535D01*
X0213235Y0198640D01*
X0213245Y0198744D01*
X0213259Y0198848D01*
X0213277Y0198952D01*
X0213299Y0199054D01*
X0213324Y0199156D01*
X0213354Y0199257D01*
X0213387Y0199356D01*
X0213424Y0199454D01*
X0213465Y0199551D01*
X0213510Y0199646D01*
X0213558Y0199739D01*
X0213609Y0199831D01*
X0213665Y0199920D01*
X0213723Y0200007D01*
X0213785Y0200092D01*
X0213849Y0200175D01*
X0213917Y0200255D01*
X0213988Y0200332D01*
X0214062Y0200406D01*
X0214139Y0200478D01*
X0214218Y0200547D01*
X0214300Y0200612D01*
X0214384Y0200675D01*
X0214471Y0200734D01*
X0214560Y0200790D01*
X0214651Y0200843D01*
X0214744Y0200892D01*
X0214838Y0200937D01*
X0214934Y0200979D01*
X0215032Y0201017D01*
X0215131Y0201051D01*
X0215232Y0201082D01*
X0215333Y0201108D01*
X0215436Y0201131D01*
X0215539Y0201150D01*
X0215643Y0201165D01*
X0215747Y0201176D01*
X0215852Y0201183D01*
X0215957Y0201186D01*
X0216062Y0201185D01*
X0216167Y0201180D01*
X0216271Y0201171D01*
X0216375Y0201158D01*
X0216479Y0201141D01*
X0216582Y0201120D01*
X0216684Y0201095D01*
X0216785Y0201067D01*
X0216884Y0201034D01*
X0216983Y0200998D01*
X0217080Y0200958D01*
X0217175Y0200915D01*
X0217269Y0200867D01*
X0217361Y0200817D01*
X0217451Y0200763D01*
X0217539Y0200705D01*
X0217624Y0200644D01*
X0217707Y0200580D01*
X0217788Y0200513D01*
X0217866Y0200443D01*
X0217941Y0200369D01*
X0218013Y0200294D01*
X0218083Y0200215D01*
X0218149Y0200134D01*
X0218213Y0200050D01*
X0218273Y0199964D01*
X0218329Y0199876D01*
X0218383Y0199785D01*
X0218433Y0199693D01*
X0218479Y0199599D01*
X0218522Y0199503D01*
X0218561Y0199405D01*
X0218596Y0199307D01*
X0218627Y0199206D01*
X0218655Y0199105D01*
X0218679Y0199003D01*
X0218699Y0198900D01*
X0218715Y0198796D01*
X0218727Y0198692D01*
X0218735Y0198587D01*
X0218739Y0198482D01*
X0218739Y0198378D01*
X0218735Y0198273D01*
X0218727Y0198168D01*
X0218715Y0198064D01*
X0218699Y0197960D01*
X0218679Y0197857D01*
X0218655Y0197755D01*
X0218627Y0197654D01*
X0218596Y0197553D01*
X0218561Y0197455D01*
X0218522Y0197357D01*
X0218479Y0197261D01*
X0218433Y0197167D01*
X0218383Y0197075D01*
X0218329Y0196984D01*
X0218273Y0196896D01*
X0218213Y0196810D01*
X0218149Y0196726D01*
X0218083Y0196645D01*
X0218013Y0196566D01*
X0217941Y0196491D01*
X0217866Y0196417D01*
X0217788Y0196347D01*
X0217707Y0196280D01*
X0217624Y0196216D01*
X0217539Y0196155D01*
X0217451Y0196097D01*
X0217361Y0196043D01*
X0217269Y0195993D01*
X0217175Y0195945D01*
X0217080Y0195902D01*
X0216983Y0195862D01*
X0216884Y0195826D01*
X0216785Y0195793D01*
X0216684Y0195765D01*
X0216582Y0195740D01*
X0216479Y0195719D01*
X0216375Y0195702D01*
X0216271Y0195689D01*
X0216167Y0195680D01*
X0216062Y0195675D01*
X0215957Y0195674D01*
X0215852Y0195677D01*
X0215747Y0195684D01*
X0215643Y0195695D01*
X0215539Y0195710D01*
X0215436Y0195729D01*
X0215333Y0195752D01*
X0215232Y0195778D01*
X0215131Y0195809D01*
X0215032Y0195843D01*
X0214934Y0195881D01*
X0214838Y0195923D01*
X0214744Y0195968D01*
X0214651Y0196017D01*
X0214560Y0196070D01*
X0214471Y0196126D01*
X0214384Y0196185D01*
X0214300Y0196248D01*
X0214218Y0196313D01*
X0214139Y0196382D01*
X0214062Y0196454D01*
X0213988Y0196528D01*
X0213917Y0196605D01*
X0213849Y0196685D01*
X0213785Y0196768D01*
X0213723Y0196853D01*
X0213665Y0196940D01*
X0213609Y0197029D01*
X0213558Y0197121D01*
X0213510Y0197214D01*
X0213465Y0197309D01*
X0213424Y0197406D01*
X0213387Y0197504D01*
X0213354Y0197603D01*
X0213324Y0197704D01*
X0213299Y0197806D01*
X0213277Y0197908D01*
X0213259Y0198012D01*
X0213245Y0198116D01*
X0213235Y0198220D01*
X0213229Y0198325D01*
X0213227Y0198430D01*
X0051810Y0198430D02*
X0051812Y0198535D01*
X0051818Y0198640D01*
X0051828Y0198744D01*
X0051842Y0198848D01*
X0051860Y0198952D01*
X0051882Y0199054D01*
X0051907Y0199156D01*
X0051937Y0199257D01*
X0051970Y0199356D01*
X0052007Y0199454D01*
X0052048Y0199551D01*
X0052093Y0199646D01*
X0052141Y0199739D01*
X0052192Y0199831D01*
X0052248Y0199920D01*
X0052306Y0200007D01*
X0052368Y0200092D01*
X0052432Y0200175D01*
X0052500Y0200255D01*
X0052571Y0200332D01*
X0052645Y0200406D01*
X0052722Y0200478D01*
X0052801Y0200547D01*
X0052883Y0200612D01*
X0052967Y0200675D01*
X0053054Y0200734D01*
X0053143Y0200790D01*
X0053234Y0200843D01*
X0053327Y0200892D01*
X0053421Y0200937D01*
X0053517Y0200979D01*
X0053615Y0201017D01*
X0053714Y0201051D01*
X0053815Y0201082D01*
X0053916Y0201108D01*
X0054019Y0201131D01*
X0054122Y0201150D01*
X0054226Y0201165D01*
X0054330Y0201176D01*
X0054435Y0201183D01*
X0054540Y0201186D01*
X0054645Y0201185D01*
X0054750Y0201180D01*
X0054854Y0201171D01*
X0054958Y0201158D01*
X0055062Y0201141D01*
X0055165Y0201120D01*
X0055267Y0201095D01*
X0055368Y0201067D01*
X0055467Y0201034D01*
X0055566Y0200998D01*
X0055663Y0200958D01*
X0055758Y0200915D01*
X0055852Y0200867D01*
X0055944Y0200817D01*
X0056034Y0200763D01*
X0056122Y0200705D01*
X0056207Y0200644D01*
X0056290Y0200580D01*
X0056371Y0200513D01*
X0056449Y0200443D01*
X0056524Y0200369D01*
X0056596Y0200294D01*
X0056666Y0200215D01*
X0056732Y0200134D01*
X0056796Y0200050D01*
X0056856Y0199964D01*
X0056912Y0199876D01*
X0056966Y0199785D01*
X0057016Y0199693D01*
X0057062Y0199599D01*
X0057105Y0199503D01*
X0057144Y0199405D01*
X0057179Y0199307D01*
X0057210Y0199206D01*
X0057238Y0199105D01*
X0057262Y0199003D01*
X0057282Y0198900D01*
X0057298Y0198796D01*
X0057310Y0198692D01*
X0057318Y0198587D01*
X0057322Y0198482D01*
X0057322Y0198378D01*
X0057318Y0198273D01*
X0057310Y0198168D01*
X0057298Y0198064D01*
X0057282Y0197960D01*
X0057262Y0197857D01*
X0057238Y0197755D01*
X0057210Y0197654D01*
X0057179Y0197553D01*
X0057144Y0197455D01*
X0057105Y0197357D01*
X0057062Y0197261D01*
X0057016Y0197167D01*
X0056966Y0197075D01*
X0056912Y0196984D01*
X0056856Y0196896D01*
X0056796Y0196810D01*
X0056732Y0196726D01*
X0056666Y0196645D01*
X0056596Y0196566D01*
X0056524Y0196491D01*
X0056449Y0196417D01*
X0056371Y0196347D01*
X0056290Y0196280D01*
X0056207Y0196216D01*
X0056122Y0196155D01*
X0056034Y0196097D01*
X0055944Y0196043D01*
X0055852Y0195993D01*
X0055758Y0195945D01*
X0055663Y0195902D01*
X0055566Y0195862D01*
X0055467Y0195826D01*
X0055368Y0195793D01*
X0055267Y0195765D01*
X0055165Y0195740D01*
X0055062Y0195719D01*
X0054958Y0195702D01*
X0054854Y0195689D01*
X0054750Y0195680D01*
X0054645Y0195675D01*
X0054540Y0195674D01*
X0054435Y0195677D01*
X0054330Y0195684D01*
X0054226Y0195695D01*
X0054122Y0195710D01*
X0054019Y0195729D01*
X0053916Y0195752D01*
X0053815Y0195778D01*
X0053714Y0195809D01*
X0053615Y0195843D01*
X0053517Y0195881D01*
X0053421Y0195923D01*
X0053327Y0195968D01*
X0053234Y0196017D01*
X0053143Y0196070D01*
X0053054Y0196126D01*
X0052967Y0196185D01*
X0052883Y0196248D01*
X0052801Y0196313D01*
X0052722Y0196382D01*
X0052645Y0196454D01*
X0052571Y0196528D01*
X0052500Y0196605D01*
X0052432Y0196685D01*
X0052368Y0196768D01*
X0052306Y0196853D01*
X0052248Y0196940D01*
X0052192Y0197029D01*
X0052141Y0197121D01*
X0052093Y0197214D01*
X0052048Y0197309D01*
X0052007Y0197406D01*
X0051970Y0197504D01*
X0051937Y0197603D01*
X0051907Y0197704D01*
X0051882Y0197806D01*
X0051860Y0197908D01*
X0051842Y0198012D01*
X0051828Y0198116D01*
X0051818Y0198220D01*
X0051812Y0198325D01*
X0051810Y0198430D01*
D11*
X0124271Y0190721D02*
X0124271Y0188032D01*
X0124944Y0187359D01*
X0126288Y0187359D01*
X0126961Y0188032D01*
X0126961Y0189376D01*
X0125616Y0189376D01*
X0126961Y0190721D02*
X0126288Y0191393D01*
X0124944Y0191393D01*
X0124271Y0190721D01*
X0128259Y0191393D02*
X0128259Y0187359D01*
X0130948Y0187359D02*
X0130948Y0191393D01*
X0132246Y0191393D02*
X0134264Y0191393D01*
X0134936Y0190721D01*
X0134936Y0188032D01*
X0134264Y0187359D01*
X0132246Y0187359D01*
X0132246Y0191393D01*
X0128259Y0191393D02*
X0130948Y0187359D01*
X0140222Y0187359D02*
X0140222Y0191393D01*
X0142911Y0187359D01*
X0142911Y0191393D01*
X0144209Y0190721D02*
X0144882Y0191393D01*
X0146227Y0191393D01*
X0146899Y0190721D01*
X0146899Y0188032D02*
X0146227Y0187359D01*
X0144882Y0187359D01*
X0144209Y0188032D01*
X0144209Y0190721D01*
X0152185Y0191393D02*
X0152185Y0187359D01*
X0154874Y0187359D02*
X0154874Y0191393D01*
X0156172Y0190721D02*
X0156172Y0188032D01*
X0156845Y0187359D01*
X0158190Y0187359D01*
X0158862Y0188032D01*
X0158862Y0190721D02*
X0158190Y0191393D01*
X0156845Y0191393D01*
X0156172Y0190721D01*
X0154874Y0187359D02*
X0152185Y0191393D01*
X0164148Y0191393D02*
X0164148Y0187359D01*
X0164148Y0188704D02*
X0166165Y0188704D01*
X0166837Y0189376D01*
X0166837Y0190721D01*
X0166165Y0191393D01*
X0164148Y0191393D01*
X0165492Y0188704D02*
X0166837Y0187359D01*
X0168135Y0187359D02*
X0170825Y0191393D01*
X0168135Y0191393D02*
X0170825Y0187359D01*
X0176111Y0191393D02*
X0178800Y0191393D01*
X0180098Y0191393D02*
X0182788Y0187359D01*
X0180098Y0187359D02*
X0182788Y0191393D01*
X0177455Y0191393D02*
X0177455Y0187359D01*
X0235225Y0155470D02*
X0235709Y0155954D01*
X0237644Y0154019D01*
X0238128Y0154503D01*
X0238128Y0155470D01*
X0237644Y0155954D01*
X0235709Y0155954D01*
X0235225Y0155470D02*
X0235225Y0154503D01*
X0235709Y0154019D01*
X0237644Y0154019D01*
X0238128Y0153008D02*
X0238128Y0151073D01*
X0236193Y0153008D01*
X0235709Y0153008D01*
X0235225Y0152524D01*
X0235225Y0151556D01*
X0235709Y0151073D01*
X0235709Y0150061D02*
X0236193Y0150061D01*
X0236677Y0149577D01*
X0236677Y0148610D01*
X0236193Y0148126D01*
X0235709Y0148126D01*
X0235225Y0148610D01*
X0235225Y0149577D01*
X0235709Y0150061D01*
X0236677Y0149577D02*
X0237160Y0150061D01*
X0237644Y0150061D01*
X0238128Y0149577D01*
X0238128Y0148610D01*
X0237644Y0148126D01*
X0237160Y0148126D01*
X0236677Y0148610D01*
X0238128Y0147115D02*
X0238128Y0145180D01*
X0238128Y0146147D02*
X0235225Y0146147D01*
X0236193Y0145180D01*
X0235709Y0144168D02*
X0235225Y0143684D01*
X0235225Y0142717D01*
X0235709Y0142233D01*
X0236193Y0142233D01*
X0236677Y0142717D01*
X0236677Y0143684D01*
X0237160Y0144168D01*
X0237644Y0144168D01*
X0238128Y0143684D01*
X0238128Y0142717D01*
X0237644Y0142233D01*
X0237644Y0141221D02*
X0235709Y0141221D01*
X0235225Y0140738D01*
X0235225Y0139287D01*
X0238128Y0139287D01*
X0238128Y0140738D01*
X0237644Y0141221D01*
X0237751Y0108882D02*
X0236784Y0108882D01*
X0236784Y0107914D01*
X0237751Y0106947D02*
X0238235Y0107431D01*
X0238235Y0108398D01*
X0237751Y0108882D01*
X0235816Y0108882D02*
X0235332Y0108398D01*
X0235332Y0107431D01*
X0235816Y0106947D01*
X0237751Y0106947D01*
X0237751Y0105935D02*
X0235816Y0105935D01*
X0235332Y0105452D01*
X0235332Y0104484D01*
X0235816Y0104000D01*
X0237751Y0104000D01*
X0238235Y0104484D01*
X0238235Y0105452D01*
X0237751Y0105935D01*
X0238235Y0102989D02*
X0237267Y0102021D01*
X0237267Y0102505D02*
X0237267Y0101054D01*
X0238235Y0101054D02*
X0235332Y0101054D01*
X0235332Y0102505D01*
X0235816Y0102989D01*
X0236784Y0102989D01*
X0237267Y0102505D01*
X0236784Y0100042D02*
X0235816Y0100042D01*
X0235332Y0099559D01*
X0235332Y0098107D01*
X0238235Y0098107D01*
X0237267Y0098107D02*
X0237267Y0099559D01*
X0236784Y0100042D01*
X0188772Y0056839D02*
X0188772Y0056222D01*
X0188155Y0055605D01*
X0188772Y0054987D01*
X0188772Y0054370D01*
X0188155Y0053753D01*
X0186921Y0053753D01*
X0186304Y0054370D01*
X0185079Y0054370D02*
X0185079Y0053753D01*
X0184462Y0053753D01*
X0184462Y0054370D01*
X0185079Y0054370D01*
X0183248Y0054370D02*
X0182631Y0053753D01*
X0181396Y0053753D01*
X0180779Y0054370D01*
X0182013Y0055605D02*
X0182631Y0055605D01*
X0183248Y0054987D01*
X0183248Y0054370D01*
X0182631Y0055605D02*
X0183248Y0056222D01*
X0183248Y0056839D01*
X0182631Y0057456D01*
X0181396Y0057456D01*
X0180779Y0056839D01*
X0186304Y0056839D02*
X0186921Y0057456D01*
X0188155Y0057456D01*
X0188772Y0056839D01*
X0189987Y0056222D02*
X0191221Y0053753D01*
X0192456Y0056222D01*
X0188155Y0055605D02*
X0187538Y0055605D01*
X0186314Y0050222D02*
X0186931Y0049605D01*
X0186931Y0048987D01*
X0184462Y0048987D01*
X0184462Y0048370D02*
X0184462Y0049605D01*
X0185079Y0050222D01*
X0186314Y0050222D01*
X0188145Y0049605D02*
X0188145Y0048370D01*
X0188762Y0047753D01*
X0190614Y0047753D01*
X0190614Y0047136D02*
X0190614Y0050222D01*
X0188762Y0050222D01*
X0188145Y0049605D01*
X0186314Y0047753D02*
X0185079Y0047753D01*
X0184462Y0048370D01*
X0183248Y0047753D02*
X0182013Y0048987D01*
X0182631Y0048987D02*
X0180779Y0048987D01*
X0180779Y0047753D02*
X0180779Y0051456D01*
X0182631Y0051456D01*
X0183248Y0050839D01*
X0183248Y0049605D01*
X0182631Y0048987D01*
X0189380Y0046519D02*
X0189997Y0046519D01*
X0190614Y0047136D01*
X0174559Y0071296D02*
X0174559Y0074999D01*
X0175793Y0074999D02*
X0173324Y0074999D01*
X0172110Y0074999D02*
X0172110Y0071914D01*
X0171493Y0071296D01*
X0170259Y0071296D01*
X0169641Y0071914D01*
X0169641Y0074999D01*
X0168427Y0074382D02*
X0167810Y0074999D01*
X0166575Y0074999D01*
X0165958Y0074382D01*
X0165958Y0071914D01*
X0166575Y0071296D01*
X0167810Y0071296D01*
X0168427Y0071914D01*
X0168427Y0074382D01*
X0164744Y0074999D02*
X0164744Y0072531D01*
X0163509Y0071296D01*
X0162275Y0072531D01*
X0162275Y0074999D01*
X0169362Y0020157D02*
X0169362Y0017688D01*
X0170596Y0016454D01*
X0171830Y0017688D01*
X0171830Y0020157D01*
X0173045Y0020157D02*
X0174279Y0020157D01*
X0173662Y0020157D02*
X0173662Y0016454D01*
X0173045Y0016454D02*
X0174279Y0016454D01*
X0175500Y0016454D02*
X0175500Y0020157D01*
X0177969Y0016454D01*
X0177969Y0020157D01*
D12*
X0200538Y0043616D02*
X0201605Y0042549D01*
X0205876Y0042549D01*
X0206943Y0043616D01*
X0206943Y0045751D01*
X0205876Y0046819D01*
X0203740Y0046819D01*
X0203740Y0044684D01*
X0201605Y0046819D02*
X0200538Y0045751D01*
X0200538Y0043616D01*
X0200538Y0048994D02*
X0206943Y0053264D01*
X0200538Y0053264D01*
X0200538Y0055440D02*
X0200538Y0058642D01*
X0201605Y0059710D01*
X0205876Y0059710D01*
X0206943Y0058642D01*
X0206943Y0055440D01*
X0200538Y0055440D01*
X0200538Y0048994D02*
X0206943Y0048994D01*
X0215936Y0049375D02*
X0217436Y0049375D01*
X0217436Y0050875D01*
X0217436Y0049375D02*
X0218936Y0049375D01*
X0217436Y0049375D02*
X0217436Y0047875D01*
X0212936Y0044375D02*
X0212939Y0044645D01*
X0212949Y0044915D01*
X0212966Y0045184D01*
X0212989Y0045453D01*
X0213019Y0045722D01*
X0213055Y0045989D01*
X0213098Y0046256D01*
X0213147Y0046521D01*
X0213203Y0046785D01*
X0213266Y0047048D01*
X0213334Y0047309D01*
X0213410Y0047568D01*
X0213491Y0047825D01*
X0213579Y0048081D01*
X0213673Y0048334D01*
X0213773Y0048585D01*
X0213880Y0048833D01*
X0213992Y0049078D01*
X0214111Y0049321D01*
X0214235Y0049560D01*
X0214365Y0049797D01*
X0214501Y0050030D01*
X0214643Y0050260D01*
X0214790Y0050486D01*
X0214943Y0050709D01*
X0215101Y0050928D01*
X0215264Y0051143D01*
X0215433Y0051353D01*
X0215607Y0051560D01*
X0215786Y0051762D01*
X0215969Y0051960D01*
X0216158Y0052153D01*
X0216351Y0052342D01*
X0216549Y0052525D01*
X0216751Y0052704D01*
X0216958Y0052878D01*
X0217168Y0053047D01*
X0217383Y0053210D01*
X0217602Y0053368D01*
X0217825Y0053521D01*
X0218051Y0053668D01*
X0218281Y0053810D01*
X0218514Y0053946D01*
X0218751Y0054076D01*
X0218990Y0054200D01*
X0219233Y0054319D01*
X0219478Y0054431D01*
X0219726Y0054538D01*
X0219977Y0054638D01*
X0220230Y0054732D01*
X0220486Y0054820D01*
X0220743Y0054901D01*
X0221002Y0054977D01*
X0221263Y0055045D01*
X0221526Y0055108D01*
X0221790Y0055164D01*
X0222055Y0055213D01*
X0222322Y0055256D01*
X0222589Y0055292D01*
X0222858Y0055322D01*
X0223127Y0055345D01*
X0223396Y0055362D01*
X0223666Y0055372D01*
X0223936Y0055375D01*
X0224206Y0055372D01*
X0224476Y0055362D01*
X0224745Y0055345D01*
X0225014Y0055322D01*
X0225283Y0055292D01*
X0225550Y0055256D01*
X0225817Y0055213D01*
X0226082Y0055164D01*
X0226346Y0055108D01*
X0226609Y0055045D01*
X0226870Y0054977D01*
X0227129Y0054901D01*
X0227386Y0054820D01*
X0227642Y0054732D01*
X0227895Y0054638D01*
X0228146Y0054538D01*
X0228394Y0054431D01*
X0228639Y0054319D01*
X0228882Y0054200D01*
X0229121Y0054076D01*
X0229358Y0053946D01*
X0229591Y0053810D01*
X0229821Y0053668D01*
X0230047Y0053521D01*
X0230270Y0053368D01*
X0230489Y0053210D01*
X0230704Y0053047D01*
X0230914Y0052878D01*
X0231121Y0052704D01*
X0231323Y0052525D01*
X0231521Y0052342D01*
X0231714Y0052153D01*
X0231903Y0051960D01*
X0232086Y0051762D01*
X0232265Y0051560D01*
X0232439Y0051353D01*
X0232608Y0051143D01*
X0232771Y0050928D01*
X0232929Y0050709D01*
X0233082Y0050486D01*
X0233229Y0050260D01*
X0233371Y0050030D01*
X0233507Y0049797D01*
X0233637Y0049560D01*
X0233761Y0049321D01*
X0233880Y0049078D01*
X0233992Y0048833D01*
X0234099Y0048585D01*
X0234199Y0048334D01*
X0234293Y0048081D01*
X0234381Y0047825D01*
X0234462Y0047568D01*
X0234538Y0047309D01*
X0234606Y0047048D01*
X0234669Y0046785D01*
X0234725Y0046521D01*
X0234774Y0046256D01*
X0234817Y0045989D01*
X0234853Y0045722D01*
X0234883Y0045453D01*
X0234906Y0045184D01*
X0234923Y0044915D01*
X0234933Y0044645D01*
X0234936Y0044375D01*
X0234933Y0044105D01*
X0234923Y0043835D01*
X0234906Y0043566D01*
X0234883Y0043297D01*
X0234853Y0043028D01*
X0234817Y0042761D01*
X0234774Y0042494D01*
X0234725Y0042229D01*
X0234669Y0041965D01*
X0234606Y0041702D01*
X0234538Y0041441D01*
X0234462Y0041182D01*
X0234381Y0040925D01*
X0234293Y0040669D01*
X0234199Y0040416D01*
X0234099Y0040165D01*
X0233992Y0039917D01*
X0233880Y0039672D01*
X0233761Y0039429D01*
X0233637Y0039190D01*
X0233507Y0038953D01*
X0233371Y0038720D01*
X0233229Y0038490D01*
X0233082Y0038264D01*
X0232929Y0038041D01*
X0232771Y0037822D01*
X0232608Y0037607D01*
X0232439Y0037397D01*
X0232265Y0037190D01*
X0232086Y0036988D01*
X0231903Y0036790D01*
X0231714Y0036597D01*
X0231521Y0036408D01*
X0231323Y0036225D01*
X0231121Y0036046D01*
X0230914Y0035872D01*
X0230704Y0035703D01*
X0230489Y0035540D01*
X0230270Y0035382D01*
X0230047Y0035229D01*
X0229821Y0035082D01*
X0229591Y0034940D01*
X0229358Y0034804D01*
X0229121Y0034674D01*
X0228882Y0034550D01*
X0228639Y0034431D01*
X0228394Y0034319D01*
X0228146Y0034212D01*
X0227895Y0034112D01*
X0227642Y0034018D01*
X0227386Y0033930D01*
X0227129Y0033849D01*
X0226870Y0033773D01*
X0226609Y0033705D01*
X0226346Y0033642D01*
X0226082Y0033586D01*
X0225817Y0033537D01*
X0225550Y0033494D01*
X0225283Y0033458D01*
X0225014Y0033428D01*
X0224745Y0033405D01*
X0224476Y0033388D01*
X0224206Y0033378D01*
X0223936Y0033375D01*
X0223666Y0033378D01*
X0223396Y0033388D01*
X0223127Y0033405D01*
X0222858Y0033428D01*
X0222589Y0033458D01*
X0222322Y0033494D01*
X0222055Y0033537D01*
X0221790Y0033586D01*
X0221526Y0033642D01*
X0221263Y0033705D01*
X0221002Y0033773D01*
X0220743Y0033849D01*
X0220486Y0033930D01*
X0220230Y0034018D01*
X0219977Y0034112D01*
X0219726Y0034212D01*
X0219478Y0034319D01*
X0219233Y0034431D01*
X0218990Y0034550D01*
X0218751Y0034674D01*
X0218514Y0034804D01*
X0218281Y0034940D01*
X0218051Y0035082D01*
X0217825Y0035229D01*
X0217602Y0035382D01*
X0217383Y0035540D01*
X0217168Y0035703D01*
X0216958Y0035872D01*
X0216751Y0036046D01*
X0216549Y0036225D01*
X0216351Y0036408D01*
X0216158Y0036597D01*
X0215969Y0036790D01*
X0215786Y0036988D01*
X0215607Y0037190D01*
X0215433Y0037397D01*
X0215264Y0037607D01*
X0215101Y0037822D01*
X0214943Y0038041D01*
X0214790Y0038264D01*
X0214643Y0038490D01*
X0214501Y0038720D01*
X0214365Y0038953D01*
X0214235Y0039190D01*
X0214111Y0039429D01*
X0213992Y0039672D01*
X0213880Y0039917D01*
X0213773Y0040165D01*
X0213673Y0040416D01*
X0213579Y0040669D01*
X0213491Y0040925D01*
X0213410Y0041182D01*
X0213334Y0041441D01*
X0213266Y0041702D01*
X0213203Y0041965D01*
X0213147Y0042229D01*
X0213098Y0042494D01*
X0213055Y0042761D01*
X0213019Y0043028D01*
X0212989Y0043297D01*
X0212966Y0043566D01*
X0212949Y0043835D01*
X0212939Y0044105D01*
X0212936Y0044375D01*
X0212936Y0070477D02*
X0212939Y0070747D01*
X0212949Y0071017D01*
X0212966Y0071286D01*
X0212989Y0071555D01*
X0213019Y0071824D01*
X0213055Y0072091D01*
X0213098Y0072358D01*
X0213147Y0072623D01*
X0213203Y0072887D01*
X0213266Y0073150D01*
X0213334Y0073411D01*
X0213410Y0073670D01*
X0213491Y0073927D01*
X0213579Y0074183D01*
X0213673Y0074436D01*
X0213773Y0074687D01*
X0213880Y0074935D01*
X0213992Y0075180D01*
X0214111Y0075423D01*
X0214235Y0075662D01*
X0214365Y0075899D01*
X0214501Y0076132D01*
X0214643Y0076362D01*
X0214790Y0076588D01*
X0214943Y0076811D01*
X0215101Y0077030D01*
X0215264Y0077245D01*
X0215433Y0077455D01*
X0215607Y0077662D01*
X0215786Y0077864D01*
X0215969Y0078062D01*
X0216158Y0078255D01*
X0216351Y0078444D01*
X0216549Y0078627D01*
X0216751Y0078806D01*
X0216958Y0078980D01*
X0217168Y0079149D01*
X0217383Y0079312D01*
X0217602Y0079470D01*
X0217825Y0079623D01*
X0218051Y0079770D01*
X0218281Y0079912D01*
X0218514Y0080048D01*
X0218751Y0080178D01*
X0218990Y0080302D01*
X0219233Y0080421D01*
X0219478Y0080533D01*
X0219726Y0080640D01*
X0219977Y0080740D01*
X0220230Y0080834D01*
X0220486Y0080922D01*
X0220743Y0081003D01*
X0221002Y0081079D01*
X0221263Y0081147D01*
X0221526Y0081210D01*
X0221790Y0081266D01*
X0222055Y0081315D01*
X0222322Y0081358D01*
X0222589Y0081394D01*
X0222858Y0081424D01*
X0223127Y0081447D01*
X0223396Y0081464D01*
X0223666Y0081474D01*
X0223936Y0081477D01*
X0224206Y0081474D01*
X0224476Y0081464D01*
X0224745Y0081447D01*
X0225014Y0081424D01*
X0225283Y0081394D01*
X0225550Y0081358D01*
X0225817Y0081315D01*
X0226082Y0081266D01*
X0226346Y0081210D01*
X0226609Y0081147D01*
X0226870Y0081079D01*
X0227129Y0081003D01*
X0227386Y0080922D01*
X0227642Y0080834D01*
X0227895Y0080740D01*
X0228146Y0080640D01*
X0228394Y0080533D01*
X0228639Y0080421D01*
X0228882Y0080302D01*
X0229121Y0080178D01*
X0229358Y0080048D01*
X0229591Y0079912D01*
X0229821Y0079770D01*
X0230047Y0079623D01*
X0230270Y0079470D01*
X0230489Y0079312D01*
X0230704Y0079149D01*
X0230914Y0078980D01*
X0231121Y0078806D01*
X0231323Y0078627D01*
X0231521Y0078444D01*
X0231714Y0078255D01*
X0231903Y0078062D01*
X0232086Y0077864D01*
X0232265Y0077662D01*
X0232439Y0077455D01*
X0232608Y0077245D01*
X0232771Y0077030D01*
X0232929Y0076811D01*
X0233082Y0076588D01*
X0233229Y0076362D01*
X0233371Y0076132D01*
X0233507Y0075899D01*
X0233637Y0075662D01*
X0233761Y0075423D01*
X0233880Y0075180D01*
X0233992Y0074935D01*
X0234099Y0074687D01*
X0234199Y0074436D01*
X0234293Y0074183D01*
X0234381Y0073927D01*
X0234462Y0073670D01*
X0234538Y0073411D01*
X0234606Y0073150D01*
X0234669Y0072887D01*
X0234725Y0072623D01*
X0234774Y0072358D01*
X0234817Y0072091D01*
X0234853Y0071824D01*
X0234883Y0071555D01*
X0234906Y0071286D01*
X0234923Y0071017D01*
X0234933Y0070747D01*
X0234936Y0070477D01*
X0234933Y0070207D01*
X0234923Y0069937D01*
X0234906Y0069668D01*
X0234883Y0069399D01*
X0234853Y0069130D01*
X0234817Y0068863D01*
X0234774Y0068596D01*
X0234725Y0068331D01*
X0234669Y0068067D01*
X0234606Y0067804D01*
X0234538Y0067543D01*
X0234462Y0067284D01*
X0234381Y0067027D01*
X0234293Y0066771D01*
X0234199Y0066518D01*
X0234099Y0066267D01*
X0233992Y0066019D01*
X0233880Y0065774D01*
X0233761Y0065531D01*
X0233637Y0065292D01*
X0233507Y0065055D01*
X0233371Y0064822D01*
X0233229Y0064592D01*
X0233082Y0064366D01*
X0232929Y0064143D01*
X0232771Y0063924D01*
X0232608Y0063709D01*
X0232439Y0063499D01*
X0232265Y0063292D01*
X0232086Y0063090D01*
X0231903Y0062892D01*
X0231714Y0062699D01*
X0231521Y0062510D01*
X0231323Y0062327D01*
X0231121Y0062148D01*
X0230914Y0061974D01*
X0230704Y0061805D01*
X0230489Y0061642D01*
X0230270Y0061484D01*
X0230047Y0061331D01*
X0229821Y0061184D01*
X0229591Y0061042D01*
X0229358Y0060906D01*
X0229121Y0060776D01*
X0228882Y0060652D01*
X0228639Y0060533D01*
X0228394Y0060421D01*
X0228146Y0060314D01*
X0227895Y0060214D01*
X0227642Y0060120D01*
X0227386Y0060032D01*
X0227129Y0059951D01*
X0226870Y0059875D01*
X0226609Y0059807D01*
X0226346Y0059744D01*
X0226082Y0059688D01*
X0225817Y0059639D01*
X0225550Y0059596D01*
X0225283Y0059560D01*
X0225014Y0059530D01*
X0224745Y0059507D01*
X0224476Y0059490D01*
X0224206Y0059480D01*
X0223936Y0059477D01*
X0223666Y0059480D01*
X0223396Y0059490D01*
X0223127Y0059507D01*
X0222858Y0059530D01*
X0222589Y0059560D01*
X0222322Y0059596D01*
X0222055Y0059639D01*
X0221790Y0059688D01*
X0221526Y0059744D01*
X0221263Y0059807D01*
X0221002Y0059875D01*
X0220743Y0059951D01*
X0220486Y0060032D01*
X0220230Y0060120D01*
X0219977Y0060214D01*
X0219726Y0060314D01*
X0219478Y0060421D01*
X0219233Y0060533D01*
X0218990Y0060652D01*
X0218751Y0060776D01*
X0218514Y0060906D01*
X0218281Y0061042D01*
X0218051Y0061184D01*
X0217825Y0061331D01*
X0217602Y0061484D01*
X0217383Y0061642D01*
X0217168Y0061805D01*
X0216958Y0061974D01*
X0216751Y0062148D01*
X0216549Y0062327D01*
X0216351Y0062510D01*
X0216158Y0062699D01*
X0215969Y0062892D01*
X0215786Y0063090D01*
X0215607Y0063292D01*
X0215433Y0063499D01*
X0215264Y0063709D01*
X0215101Y0063924D01*
X0214943Y0064143D01*
X0214790Y0064366D01*
X0214643Y0064592D01*
X0214501Y0064822D01*
X0214365Y0065055D01*
X0214235Y0065292D01*
X0214111Y0065531D01*
X0213992Y0065774D01*
X0213880Y0066019D01*
X0213773Y0066267D01*
X0213673Y0066518D01*
X0213579Y0066771D01*
X0213491Y0067027D01*
X0213410Y0067284D01*
X0213334Y0067543D01*
X0213266Y0067804D01*
X0213203Y0068067D01*
X0213147Y0068331D01*
X0213098Y0068596D01*
X0213055Y0068863D01*
X0213019Y0069130D01*
X0212989Y0069399D01*
X0212966Y0069668D01*
X0212949Y0069937D01*
X0212939Y0070207D01*
X0212936Y0070477D01*
X0217436Y0073977D02*
X0217436Y0075477D01*
X0217436Y0076977D01*
X0217436Y0075477D02*
X0215936Y0075477D01*
X0217436Y0075477D02*
X0218936Y0075477D01*
X0213483Y0121107D02*
X0208483Y0121107D01*
X0205983Y0123607D01*
X0205983Y0128607D01*
X0208483Y0131107D01*
X0213483Y0131107D01*
X0215983Y0128607D01*
X0215983Y0123607D01*
X0213483Y0121107D01*
X0213290Y0151516D02*
X0211712Y0151516D01*
X0213916Y0157016D02*
X0230412Y0157016D01*
X0231038Y0151516D02*
X0232617Y0151516D01*
X0223290Y0151516D02*
X0221038Y0151516D01*
X0213916Y0157016D02*
X0213761Y0156814D01*
X0213611Y0156609D01*
X0213465Y0156400D01*
X0213325Y0156187D01*
X0213191Y0155972D01*
X0213061Y0155752D01*
X0212937Y0155530D01*
X0212818Y0155305D01*
X0212705Y0155077D01*
X0212597Y0154847D01*
X0212495Y0154614D01*
X0212398Y0154378D01*
X0212307Y0154141D01*
X0212222Y0153901D01*
X0212143Y0153659D01*
X0212070Y0153415D01*
X0212003Y0153170D01*
X0211942Y0152923D01*
X0211886Y0152674D01*
X0211837Y0152425D01*
X0211794Y0152174D01*
X0211757Y0151922D01*
X0211726Y0151669D01*
X0211701Y0151416D01*
X0211682Y0151162D01*
X0211669Y0150908D01*
X0211663Y0150654D01*
X0211663Y0150399D01*
X0211669Y0150145D01*
X0211681Y0149891D01*
X0211699Y0149637D01*
X0211723Y0149383D01*
X0211754Y0149131D01*
X0211790Y0148879D01*
X0211833Y0148628D01*
X0211882Y0148378D01*
X0211937Y0148130D01*
X0211998Y0147883D01*
X0212064Y0147637D01*
X0212137Y0147393D01*
X0212216Y0147151D01*
X0212300Y0146911D01*
X0212390Y0146673D01*
X0212486Y0146438D01*
X0212588Y0146204D01*
X0212695Y0145973D01*
X0212808Y0145745D01*
X0212927Y0145520D01*
X0213050Y0145298D01*
X0213180Y0145078D01*
X0213314Y0144862D01*
X0213454Y0144650D01*
X0213598Y0144440D01*
X0213748Y0144235D01*
X0213903Y0144032D01*
X0214062Y0143834D01*
X0214227Y0143640D01*
X0214396Y0143450D01*
X0214569Y0143263D01*
X0214747Y0143082D01*
X0214930Y0142904D01*
X0215116Y0142731D01*
X0215307Y0142562D01*
X0215502Y0142399D01*
X0215700Y0142240D01*
X0215903Y0142085D01*
X0216109Y0141936D01*
X0216319Y0141792D01*
X0216532Y0141653D01*
X0216748Y0141519D01*
X0216968Y0141391D01*
X0217191Y0141267D01*
X0217416Y0141150D01*
X0217645Y0141037D01*
X0217876Y0140931D01*
X0218109Y0140830D01*
X0218345Y0140734D01*
X0218583Y0140645D01*
X0218824Y0140561D01*
X0219066Y0140483D01*
X0225262Y0140483D02*
X0225504Y0140561D01*
X0225745Y0140645D01*
X0225983Y0140734D01*
X0226219Y0140830D01*
X0226452Y0140931D01*
X0226683Y0141037D01*
X0226912Y0141150D01*
X0227137Y0141267D01*
X0227360Y0141391D01*
X0227580Y0141519D01*
X0227796Y0141653D01*
X0228009Y0141792D01*
X0228219Y0141936D01*
X0228425Y0142085D01*
X0228628Y0142240D01*
X0228826Y0142399D01*
X0229021Y0142562D01*
X0229212Y0142731D01*
X0229398Y0142904D01*
X0229581Y0143082D01*
X0229759Y0143263D01*
X0229932Y0143450D01*
X0230101Y0143640D01*
X0230266Y0143834D01*
X0230425Y0144032D01*
X0230580Y0144235D01*
X0230730Y0144440D01*
X0230874Y0144650D01*
X0231014Y0144862D01*
X0231148Y0145078D01*
X0231278Y0145298D01*
X0231401Y0145520D01*
X0231520Y0145745D01*
X0231633Y0145973D01*
X0231740Y0146204D01*
X0231842Y0146438D01*
X0231938Y0146673D01*
X0232028Y0146911D01*
X0232112Y0147151D01*
X0232191Y0147393D01*
X0232264Y0147637D01*
X0232330Y0147883D01*
X0232391Y0148130D01*
X0232446Y0148378D01*
X0232495Y0148628D01*
X0232538Y0148879D01*
X0232574Y0149131D01*
X0232605Y0149383D01*
X0232629Y0149637D01*
X0232647Y0149891D01*
X0232659Y0150145D01*
X0232665Y0150399D01*
X0232665Y0150654D01*
X0232659Y0150908D01*
X0232646Y0151162D01*
X0232627Y0151416D01*
X0232602Y0151669D01*
X0232571Y0151922D01*
X0232534Y0152174D01*
X0232491Y0152425D01*
X0232442Y0152674D01*
X0232386Y0152923D01*
X0232325Y0153170D01*
X0232258Y0153415D01*
X0232185Y0153659D01*
X0232106Y0153901D01*
X0232021Y0154141D01*
X0231930Y0154378D01*
X0231833Y0154614D01*
X0231731Y0154847D01*
X0231623Y0155077D01*
X0231510Y0155305D01*
X0231391Y0155530D01*
X0231267Y0155752D01*
X0231137Y0155972D01*
X0231003Y0156187D01*
X0230863Y0156400D01*
X0230717Y0156609D01*
X0230567Y0156814D01*
X0230412Y0157016D01*
X0131377Y0192859D02*
X0128877Y0190359D01*
X0123877Y0190359D01*
X0121377Y0192859D01*
X0121377Y0197859D01*
X0123877Y0200359D01*
X0128877Y0200359D01*
X0131377Y0197859D01*
X0131377Y0192859D01*
X0118818Y0120595D02*
X0116456Y0120595D01*
X0116456Y0115871D02*
X0118818Y0115871D01*
X0118818Y0112701D02*
X0116456Y0112701D01*
X0116456Y0107977D02*
X0118818Y0107977D01*
X0118818Y0104847D02*
X0116456Y0104847D01*
X0116456Y0100123D02*
X0118818Y0100123D01*
X0124920Y0072969D02*
X0124920Y0070969D01*
X0107420Y0068469D02*
X0107425Y0068898D01*
X0107441Y0069328D01*
X0107467Y0069756D01*
X0107504Y0070184D01*
X0107552Y0070611D01*
X0107609Y0071037D01*
X0107678Y0071461D01*
X0107756Y0071883D01*
X0107845Y0072303D01*
X0107944Y0072721D01*
X0108054Y0073136D01*
X0108174Y0073549D01*
X0108303Y0073958D01*
X0108443Y0074365D01*
X0108593Y0074767D01*
X0108752Y0075166D01*
X0108921Y0075561D01*
X0109100Y0075951D01*
X0109289Y0076337D01*
X0109486Y0076718D01*
X0109693Y0077095D01*
X0109910Y0077466D01*
X0110135Y0077831D01*
X0110369Y0078191D01*
X0110612Y0078546D01*
X0110864Y0078894D01*
X0111124Y0079236D01*
X0111392Y0079571D01*
X0111669Y0079900D01*
X0111953Y0080221D01*
X0112246Y0080536D01*
X0112546Y0080843D01*
X0112853Y0081143D01*
X0113168Y0081436D01*
X0113489Y0081720D01*
X0113818Y0081997D01*
X0114153Y0082265D01*
X0114495Y0082525D01*
X0114843Y0082777D01*
X0115198Y0083020D01*
X0115558Y0083254D01*
X0115923Y0083479D01*
X0116294Y0083696D01*
X0116671Y0083903D01*
X0117052Y0084100D01*
X0117438Y0084289D01*
X0117828Y0084468D01*
X0118223Y0084637D01*
X0118622Y0084796D01*
X0119024Y0084946D01*
X0119431Y0085086D01*
X0119840Y0085215D01*
X0120253Y0085335D01*
X0120668Y0085445D01*
X0121086Y0085544D01*
X0121506Y0085633D01*
X0121928Y0085711D01*
X0122352Y0085780D01*
X0122778Y0085837D01*
X0123205Y0085885D01*
X0123633Y0085922D01*
X0124061Y0085948D01*
X0124491Y0085964D01*
X0124920Y0085969D01*
X0125349Y0085964D01*
X0125779Y0085948D01*
X0126207Y0085922D01*
X0126635Y0085885D01*
X0127062Y0085837D01*
X0127488Y0085780D01*
X0127912Y0085711D01*
X0128334Y0085633D01*
X0128754Y0085544D01*
X0129172Y0085445D01*
X0129587Y0085335D01*
X0130000Y0085215D01*
X0130409Y0085086D01*
X0130816Y0084946D01*
X0131218Y0084796D01*
X0131617Y0084637D01*
X0132012Y0084468D01*
X0132402Y0084289D01*
X0132788Y0084100D01*
X0133169Y0083903D01*
X0133546Y0083696D01*
X0133917Y0083479D01*
X0134282Y0083254D01*
X0134642Y0083020D01*
X0134997Y0082777D01*
X0135345Y0082525D01*
X0135687Y0082265D01*
X0136022Y0081997D01*
X0136351Y0081720D01*
X0136672Y0081436D01*
X0136987Y0081143D01*
X0137294Y0080843D01*
X0137594Y0080536D01*
X0137887Y0080221D01*
X0138171Y0079900D01*
X0138448Y0079571D01*
X0138716Y0079236D01*
X0138976Y0078894D01*
X0139228Y0078546D01*
X0139471Y0078191D01*
X0139705Y0077831D01*
X0139930Y0077466D01*
X0140147Y0077095D01*
X0140354Y0076718D01*
X0140551Y0076337D01*
X0140740Y0075951D01*
X0140919Y0075561D01*
X0141088Y0075166D01*
X0141247Y0074767D01*
X0141397Y0074365D01*
X0141537Y0073958D01*
X0141666Y0073549D01*
X0141786Y0073136D01*
X0141896Y0072721D01*
X0141995Y0072303D01*
X0142084Y0071883D01*
X0142162Y0071461D01*
X0142231Y0071037D01*
X0142288Y0070611D01*
X0142336Y0070184D01*
X0142373Y0069756D01*
X0142399Y0069328D01*
X0142415Y0068898D01*
X0142420Y0068469D01*
X0142415Y0068040D01*
X0142399Y0067610D01*
X0142373Y0067182D01*
X0142336Y0066754D01*
X0142288Y0066327D01*
X0142231Y0065901D01*
X0142162Y0065477D01*
X0142084Y0065055D01*
X0141995Y0064635D01*
X0141896Y0064217D01*
X0141786Y0063802D01*
X0141666Y0063389D01*
X0141537Y0062980D01*
X0141397Y0062573D01*
X0141247Y0062171D01*
X0141088Y0061772D01*
X0140919Y0061377D01*
X0140740Y0060987D01*
X0140551Y0060601D01*
X0140354Y0060220D01*
X0140147Y0059843D01*
X0139930Y0059472D01*
X0139705Y0059107D01*
X0139471Y0058747D01*
X0139228Y0058392D01*
X0138976Y0058044D01*
X0138716Y0057702D01*
X0138448Y0057367D01*
X0138171Y0057038D01*
X0137887Y0056717D01*
X0137594Y0056402D01*
X0137294Y0056095D01*
X0136987Y0055795D01*
X0136672Y0055502D01*
X0136351Y0055218D01*
X0136022Y0054941D01*
X0135687Y0054673D01*
X0135345Y0054413D01*
X0134997Y0054161D01*
X0134642Y0053918D01*
X0134282Y0053684D01*
X0133917Y0053459D01*
X0133546Y0053242D01*
X0133169Y0053035D01*
X0132788Y0052838D01*
X0132402Y0052649D01*
X0132012Y0052470D01*
X0131617Y0052301D01*
X0131218Y0052142D01*
X0130816Y0051992D01*
X0130409Y0051852D01*
X0130000Y0051723D01*
X0129587Y0051603D01*
X0129172Y0051493D01*
X0128754Y0051394D01*
X0128334Y0051305D01*
X0127912Y0051227D01*
X0127488Y0051158D01*
X0127062Y0051101D01*
X0126635Y0051053D01*
X0126207Y0051016D01*
X0125779Y0050990D01*
X0125349Y0050974D01*
X0124920Y0050969D01*
X0124491Y0050974D01*
X0124061Y0050990D01*
X0123633Y0051016D01*
X0123205Y0051053D01*
X0122778Y0051101D01*
X0122352Y0051158D01*
X0121928Y0051227D01*
X0121506Y0051305D01*
X0121086Y0051394D01*
X0120668Y0051493D01*
X0120253Y0051603D01*
X0119840Y0051723D01*
X0119431Y0051852D01*
X0119024Y0051992D01*
X0118622Y0052142D01*
X0118223Y0052301D01*
X0117828Y0052470D01*
X0117438Y0052649D01*
X0117052Y0052838D01*
X0116671Y0053035D01*
X0116294Y0053242D01*
X0115923Y0053459D01*
X0115558Y0053684D01*
X0115198Y0053918D01*
X0114843Y0054161D01*
X0114495Y0054413D01*
X0114153Y0054673D01*
X0113818Y0054941D01*
X0113489Y0055218D01*
X0113168Y0055502D01*
X0112853Y0055795D01*
X0112546Y0056095D01*
X0112246Y0056402D01*
X0111953Y0056717D01*
X0111669Y0057038D01*
X0111392Y0057367D01*
X0111124Y0057702D01*
X0110864Y0058044D01*
X0110612Y0058392D01*
X0110369Y0058747D01*
X0110135Y0059107D01*
X0109910Y0059472D01*
X0109693Y0059843D01*
X0109486Y0060220D01*
X0109289Y0060601D01*
X0109100Y0060987D01*
X0108921Y0061377D01*
X0108752Y0061772D01*
X0108593Y0062171D01*
X0108443Y0062573D01*
X0108303Y0062980D01*
X0108174Y0063389D01*
X0108054Y0063802D01*
X0107944Y0064217D01*
X0107845Y0064635D01*
X0107756Y0065055D01*
X0107678Y0065477D01*
X0107609Y0065901D01*
X0107552Y0066327D01*
X0107504Y0066754D01*
X0107467Y0067182D01*
X0107441Y0067610D01*
X0107425Y0068040D01*
X0107420Y0068469D01*
X0120420Y0067469D02*
X0120420Y0064969D01*
X0124920Y0064969D01*
X0129420Y0064969D01*
X0129420Y0067469D01*
X0120420Y0067469D01*
X0124920Y0064969D02*
X0124920Y0063969D01*
X0118420Y0056969D02*
X0118420Y0053969D01*
X0116920Y0055469D02*
X0119920Y0055469D01*
X0085290Y0061657D02*
X0081019Y0061657D01*
X0083154Y0063792D02*
X0083154Y0059522D01*
X0072399Y0058454D02*
X0070263Y0060589D01*
X0071331Y0060589D02*
X0068128Y0060589D01*
X0068128Y0058454D02*
X0068128Y0064860D01*
X0071331Y0064860D01*
X0072399Y0063792D01*
X0072399Y0061657D01*
X0071331Y0060589D01*
X0059508Y0059522D02*
X0059508Y0061657D01*
X0057372Y0061657D01*
X0055237Y0063792D02*
X0055237Y0059522D01*
X0056305Y0058454D01*
X0058440Y0058454D01*
X0059508Y0059522D01*
X0059508Y0063792D02*
X0058440Y0064860D01*
X0056305Y0064860D01*
X0055237Y0063792D01*
X0046617Y0063792D02*
X0046617Y0062725D01*
X0045549Y0061657D01*
X0042346Y0061657D01*
X0042346Y0064860D02*
X0045549Y0064860D01*
X0046617Y0063792D01*
X0045549Y0061657D02*
X0046617Y0060589D01*
X0046617Y0059522D01*
X0045549Y0058454D01*
X0042346Y0058454D01*
X0042346Y0064860D01*
D13*
X0146577Y0137331D02*
X0150047Y0137331D01*
X0151733Y0138198D02*
X0152601Y0137331D01*
X0154336Y0137331D01*
X0155203Y0138198D01*
X0155203Y0139065D01*
X0154336Y0139933D01*
X0152601Y0139933D01*
X0151733Y0140800D01*
X0151733Y0141668D01*
X0152601Y0142535D01*
X0154336Y0142535D01*
X0155203Y0141668D01*
X0156890Y0142535D02*
X0159492Y0142535D01*
X0160359Y0141668D01*
X0160359Y0139933D01*
X0159492Y0139065D01*
X0156890Y0139065D01*
X0156890Y0137331D02*
X0156890Y0142535D01*
X0150047Y0142535D02*
X0146577Y0142535D01*
X0146577Y0137331D01*
X0146577Y0139933D02*
X0148312Y0139933D01*
X0167203Y0139933D02*
X0170672Y0139933D01*
X0177515Y0140800D02*
X0179250Y0142535D01*
X0179250Y0137331D01*
X0177515Y0137331D02*
X0180985Y0137331D01*
X0182672Y0137331D02*
X0186141Y0140800D01*
X0186141Y0141668D01*
X0185274Y0142535D01*
X0183539Y0142535D01*
X0182672Y0141668D01*
X0182672Y0137331D02*
X0186141Y0137331D01*
X0196657Y0170205D02*
X0198392Y0170205D01*
X0199259Y0171072D01*
X0200946Y0171072D02*
X0200946Y0172807D01*
X0201813Y0173674D01*
X0203548Y0173674D01*
X0204416Y0172807D01*
X0204416Y0171072D01*
X0203548Y0170205D01*
X0201813Y0170205D01*
X0200946Y0171072D01*
X0199259Y0174542D02*
X0198392Y0175409D01*
X0196657Y0175409D01*
X0195790Y0174542D01*
X0195790Y0171072D01*
X0196657Y0170205D01*
X0195790Y0178605D02*
X0195790Y0183809D01*
X0198392Y0183809D01*
X0199259Y0182942D01*
X0199259Y0181207D01*
X0198392Y0180339D01*
X0195790Y0180339D01*
X0197524Y0180339D02*
X0199259Y0178605D01*
X0200946Y0179472D02*
X0201813Y0178605D01*
X0203548Y0178605D01*
X0204416Y0179472D01*
X0204416Y0181207D01*
X0202681Y0181207D01*
X0204416Y0182942D02*
X0203548Y0183809D01*
X0201813Y0183809D01*
X0200946Y0182942D01*
X0200946Y0179472D01*
X0206102Y0178605D02*
X0206102Y0183809D01*
X0208705Y0183809D01*
X0209572Y0182942D01*
X0209572Y0182074D01*
X0208705Y0181207D01*
X0206102Y0181207D01*
X0206102Y0178605D02*
X0208705Y0178605D01*
X0209572Y0179472D01*
X0209572Y0180339D01*
X0208705Y0181207D01*
X0212126Y0174542D02*
X0212126Y0171072D01*
X0212994Y0170205D01*
X0214696Y0170205D02*
X0214696Y0173674D01*
X0212994Y0173674D02*
X0211259Y0173674D01*
X0209572Y0172807D02*
X0209572Y0170205D01*
X0209572Y0172807D02*
X0208705Y0173674D01*
X0206102Y0173674D01*
X0206102Y0170205D01*
X0214696Y0171939D02*
X0216431Y0173674D01*
X0217299Y0173674D01*
X0218993Y0172807D02*
X0218993Y0171072D01*
X0219861Y0170205D01*
X0221596Y0170205D01*
X0222463Y0171072D01*
X0222463Y0172807D01*
X0221596Y0173674D01*
X0219861Y0173674D01*
X0218993Y0172807D01*
X0224150Y0175409D02*
X0225017Y0175409D01*
X0225017Y0170205D01*
X0224150Y0170205D02*
X0225885Y0170205D01*
X0227587Y0170205D02*
X0229322Y0170205D01*
X0228455Y0170205D02*
X0228455Y0175409D01*
X0227587Y0175409D01*
X0231025Y0172807D02*
X0231892Y0173674D01*
X0233627Y0173674D01*
X0234495Y0172807D01*
X0234495Y0171939D01*
X0231025Y0171939D01*
X0231025Y0171072D02*
X0231025Y0172807D01*
X0231025Y0171072D02*
X0231892Y0170205D01*
X0233627Y0170205D01*
X0236181Y0170205D02*
X0236181Y0173674D01*
X0236181Y0171939D02*
X0237916Y0173674D01*
X0238784Y0173674D01*
X0231900Y0178605D02*
X0230166Y0178605D01*
X0231033Y0178605D02*
X0231033Y0182074D01*
X0230166Y0182074D01*
X0231033Y0183809D02*
X0231033Y0184676D01*
X0228479Y0183809D02*
X0225009Y0183809D01*
X0225009Y0178605D01*
X0223306Y0178605D02*
X0221572Y0178605D01*
X0222439Y0178605D02*
X0222439Y0182074D01*
X0221572Y0182074D01*
X0222439Y0183809D02*
X0222439Y0184676D01*
X0219885Y0183809D02*
X0219885Y0178605D01*
X0218150Y0180339D01*
X0216415Y0178605D01*
X0216415Y0183809D01*
X0225009Y0181207D02*
X0226744Y0181207D01*
X0221836Y0120683D02*
X0221836Y0117614D01*
X0221836Y0091683D02*
X0221836Y0088614D01*
X0220301Y0090149D02*
X0223370Y0090149D01*
D14*
X0214645Y0092603D02*
X0232361Y0092603D01*
X0232361Y0116225D01*
X0214645Y0116225D01*
X0214645Y0106383D01*
X0212676Y0106383D01*
X0212676Y0102446D01*
X0214645Y0102446D01*
X0214645Y0092603D01*
X0193225Y0091494D02*
X0193225Y0088394D01*
X0193227Y0088312D02*
X0130235Y0088312D01*
X0130225Y0088294D02*
X0130225Y0091594D01*
X0130225Y0097694D02*
X0130225Y0099394D01*
X0130225Y0105494D02*
X0130225Y0107294D01*
X0130225Y0113394D02*
X0130225Y0115194D01*
X0130225Y0121294D02*
X0130225Y0123094D01*
X0130225Y0129194D02*
X0130225Y0130894D01*
X0130225Y0136994D02*
X0130225Y0138794D01*
X0130225Y0144894D02*
X0130225Y0146694D01*
X0130225Y0152794D02*
X0130225Y0159994D01*
X0130235Y0159965D02*
X0193227Y0159965D01*
X0193227Y0182800D01*
X0130235Y0182800D01*
X0130235Y0159965D01*
X0102826Y0164871D02*
X0101826Y0163871D01*
X0090326Y0163371D01*
X0099426Y0165671D02*
X0099428Y0165734D01*
X0099434Y0165796D01*
X0099444Y0165858D01*
X0099457Y0165920D01*
X0099475Y0165980D01*
X0099496Y0166039D01*
X0099521Y0166097D01*
X0099550Y0166153D01*
X0099582Y0166207D01*
X0099617Y0166259D01*
X0099655Y0166308D01*
X0099697Y0166356D01*
X0099741Y0166400D01*
X0099789Y0166442D01*
X0099838Y0166480D01*
X0099890Y0166515D01*
X0099944Y0166547D01*
X0100000Y0166576D01*
X0100058Y0166601D01*
X0100117Y0166622D01*
X0100177Y0166640D01*
X0100239Y0166653D01*
X0100301Y0166663D01*
X0100363Y0166669D01*
X0100426Y0166671D01*
X0100489Y0166669D01*
X0100551Y0166663D01*
X0100613Y0166653D01*
X0100675Y0166640D01*
X0100735Y0166622D01*
X0100794Y0166601D01*
X0100852Y0166576D01*
X0100908Y0166547D01*
X0100962Y0166515D01*
X0101014Y0166480D01*
X0101063Y0166442D01*
X0101111Y0166400D01*
X0101155Y0166356D01*
X0101197Y0166308D01*
X0101235Y0166259D01*
X0101270Y0166207D01*
X0101302Y0166153D01*
X0101331Y0166097D01*
X0101356Y0166039D01*
X0101377Y0165980D01*
X0101395Y0165920D01*
X0101408Y0165858D01*
X0101418Y0165796D01*
X0101424Y0165734D01*
X0101426Y0165671D01*
X0101424Y0165608D01*
X0101418Y0165546D01*
X0101408Y0165484D01*
X0101395Y0165422D01*
X0101377Y0165362D01*
X0101356Y0165303D01*
X0101331Y0165245D01*
X0101302Y0165189D01*
X0101270Y0165135D01*
X0101235Y0165083D01*
X0101197Y0165034D01*
X0101155Y0164986D01*
X0101111Y0164942D01*
X0101063Y0164900D01*
X0101014Y0164862D01*
X0100962Y0164827D01*
X0100908Y0164795D01*
X0100852Y0164766D01*
X0100794Y0164741D01*
X0100735Y0164720D01*
X0100675Y0164702D01*
X0100613Y0164689D01*
X0100551Y0164679D01*
X0100489Y0164673D01*
X0100426Y0164671D01*
X0100363Y0164673D01*
X0100301Y0164679D01*
X0100239Y0164689D01*
X0100177Y0164702D01*
X0100117Y0164720D01*
X0100058Y0164741D01*
X0100000Y0164766D01*
X0099944Y0164795D01*
X0099890Y0164827D01*
X0099838Y0164862D01*
X0099789Y0164900D01*
X0099741Y0164942D01*
X0099697Y0164986D01*
X0099655Y0165034D01*
X0099617Y0165083D01*
X0099582Y0165135D01*
X0099550Y0165189D01*
X0099521Y0165245D01*
X0099496Y0165303D01*
X0099475Y0165362D01*
X0099457Y0165422D01*
X0099444Y0165484D01*
X0099434Y0165546D01*
X0099428Y0165608D01*
X0099426Y0165671D01*
X0102826Y0164871D02*
X0102826Y0201871D01*
X0101826Y0202871D01*
X0090326Y0203371D01*
X0090326Y0153568D02*
X0101826Y0153068D01*
X0102826Y0152068D01*
X0102826Y0115068D01*
X0101826Y0114068D01*
X0090326Y0113568D01*
X0099426Y0115868D02*
X0099428Y0115931D01*
X0099434Y0115993D01*
X0099444Y0116055D01*
X0099457Y0116117D01*
X0099475Y0116177D01*
X0099496Y0116236D01*
X0099521Y0116294D01*
X0099550Y0116350D01*
X0099582Y0116404D01*
X0099617Y0116456D01*
X0099655Y0116505D01*
X0099697Y0116553D01*
X0099741Y0116597D01*
X0099789Y0116639D01*
X0099838Y0116677D01*
X0099890Y0116712D01*
X0099944Y0116744D01*
X0100000Y0116773D01*
X0100058Y0116798D01*
X0100117Y0116819D01*
X0100177Y0116837D01*
X0100239Y0116850D01*
X0100301Y0116860D01*
X0100363Y0116866D01*
X0100426Y0116868D01*
X0100489Y0116866D01*
X0100551Y0116860D01*
X0100613Y0116850D01*
X0100675Y0116837D01*
X0100735Y0116819D01*
X0100794Y0116798D01*
X0100852Y0116773D01*
X0100908Y0116744D01*
X0100962Y0116712D01*
X0101014Y0116677D01*
X0101063Y0116639D01*
X0101111Y0116597D01*
X0101155Y0116553D01*
X0101197Y0116505D01*
X0101235Y0116456D01*
X0101270Y0116404D01*
X0101302Y0116350D01*
X0101331Y0116294D01*
X0101356Y0116236D01*
X0101377Y0116177D01*
X0101395Y0116117D01*
X0101408Y0116055D01*
X0101418Y0115993D01*
X0101424Y0115931D01*
X0101426Y0115868D01*
X0101424Y0115805D01*
X0101418Y0115743D01*
X0101408Y0115681D01*
X0101395Y0115619D01*
X0101377Y0115559D01*
X0101356Y0115500D01*
X0101331Y0115442D01*
X0101302Y0115386D01*
X0101270Y0115332D01*
X0101235Y0115280D01*
X0101197Y0115231D01*
X0101155Y0115183D01*
X0101111Y0115139D01*
X0101063Y0115097D01*
X0101014Y0115059D01*
X0100962Y0115024D01*
X0100908Y0114992D01*
X0100852Y0114963D01*
X0100794Y0114938D01*
X0100735Y0114917D01*
X0100675Y0114899D01*
X0100613Y0114886D01*
X0100551Y0114876D01*
X0100489Y0114870D01*
X0100426Y0114868D01*
X0100363Y0114870D01*
X0100301Y0114876D01*
X0100239Y0114886D01*
X0100177Y0114899D01*
X0100117Y0114917D01*
X0100058Y0114938D01*
X0100000Y0114963D01*
X0099944Y0114992D01*
X0099890Y0115024D01*
X0099838Y0115059D01*
X0099789Y0115097D01*
X0099741Y0115139D01*
X0099697Y0115183D01*
X0099655Y0115231D01*
X0099617Y0115280D01*
X0099582Y0115332D01*
X0099550Y0115386D01*
X0099521Y0115442D01*
X0099496Y0115500D01*
X0099475Y0115559D01*
X0099457Y0115619D01*
X0099444Y0115681D01*
X0099434Y0115743D01*
X0099428Y0115805D01*
X0099426Y0115868D01*
X0101826Y0101178D02*
X0090326Y0101678D01*
X0101826Y0101178D02*
X0102826Y0100178D01*
X0102826Y0063178D01*
X0101826Y0062178D01*
X0090326Y0061678D01*
X0099426Y0063978D02*
X0099428Y0064041D01*
X0099434Y0064103D01*
X0099444Y0064165D01*
X0099457Y0064227D01*
X0099475Y0064287D01*
X0099496Y0064346D01*
X0099521Y0064404D01*
X0099550Y0064460D01*
X0099582Y0064514D01*
X0099617Y0064566D01*
X0099655Y0064615D01*
X0099697Y0064663D01*
X0099741Y0064707D01*
X0099789Y0064749D01*
X0099838Y0064787D01*
X0099890Y0064822D01*
X0099944Y0064854D01*
X0100000Y0064883D01*
X0100058Y0064908D01*
X0100117Y0064929D01*
X0100177Y0064947D01*
X0100239Y0064960D01*
X0100301Y0064970D01*
X0100363Y0064976D01*
X0100426Y0064978D01*
X0100489Y0064976D01*
X0100551Y0064970D01*
X0100613Y0064960D01*
X0100675Y0064947D01*
X0100735Y0064929D01*
X0100794Y0064908D01*
X0100852Y0064883D01*
X0100908Y0064854D01*
X0100962Y0064822D01*
X0101014Y0064787D01*
X0101063Y0064749D01*
X0101111Y0064707D01*
X0101155Y0064663D01*
X0101197Y0064615D01*
X0101235Y0064566D01*
X0101270Y0064514D01*
X0101302Y0064460D01*
X0101331Y0064404D01*
X0101356Y0064346D01*
X0101377Y0064287D01*
X0101395Y0064227D01*
X0101408Y0064165D01*
X0101418Y0064103D01*
X0101424Y0064041D01*
X0101426Y0063978D01*
X0101424Y0063915D01*
X0101418Y0063853D01*
X0101408Y0063791D01*
X0101395Y0063729D01*
X0101377Y0063669D01*
X0101356Y0063610D01*
X0101331Y0063552D01*
X0101302Y0063496D01*
X0101270Y0063442D01*
X0101235Y0063390D01*
X0101197Y0063341D01*
X0101155Y0063293D01*
X0101111Y0063249D01*
X0101063Y0063207D01*
X0101014Y0063169D01*
X0100962Y0063134D01*
X0100908Y0063102D01*
X0100852Y0063073D01*
X0100794Y0063048D01*
X0100735Y0063027D01*
X0100675Y0063009D01*
X0100613Y0062996D01*
X0100551Y0062986D01*
X0100489Y0062980D01*
X0100426Y0062978D01*
X0100363Y0062980D01*
X0100301Y0062986D01*
X0100239Y0062996D01*
X0100177Y0063009D01*
X0100117Y0063027D01*
X0100058Y0063048D01*
X0100000Y0063073D01*
X0099944Y0063102D01*
X0099890Y0063134D01*
X0099838Y0063169D01*
X0099789Y0063207D01*
X0099741Y0063249D01*
X0099697Y0063293D01*
X0099655Y0063341D01*
X0099617Y0063390D01*
X0099582Y0063442D01*
X0099550Y0063496D01*
X0099521Y0063552D01*
X0099496Y0063610D01*
X0099475Y0063669D01*
X0099457Y0063729D01*
X0099444Y0063791D01*
X0099434Y0063853D01*
X0099428Y0063915D01*
X0099426Y0063978D01*
X0113011Y0048075D02*
X0152381Y0048075D01*
X0152381Y0043548D01*
X0113011Y0043548D01*
X0113011Y0015005D01*
X0152381Y0015005D01*
X0152381Y0043548D01*
X0113011Y0043548D02*
X0113011Y0048075D01*
X0193225Y0097594D02*
X0193225Y0099494D01*
X0193225Y0105394D02*
X0193225Y0107494D01*
X0193225Y0113294D02*
X0193225Y0115394D01*
X0193225Y0121194D02*
X0193225Y0123194D01*
X0193225Y0129094D02*
X0193225Y0130994D01*
X0193325Y0136894D02*
X0193325Y0138894D01*
X0193325Y0144894D02*
X0193325Y0146794D01*
X0193225Y0152694D02*
X0193225Y0159994D01*
X0193125Y0159994D01*
D15*
X0087326Y0183371D03*
X0087326Y0133568D03*
X0087326Y0081678D03*
D16*
X0089826Y0098928D03*
X0089826Y0116318D03*
X0089826Y0150818D03*
X0089826Y0166121D03*
X0089826Y0200621D03*
X0089826Y0064428D03*
D17*
X0089826Y0076678D03*
X0089826Y0086678D03*
X0089826Y0128568D03*
X0089826Y0138568D03*
X0089826Y0178371D03*
X0089826Y0188371D03*
D18*
X0136731Y0195359D02*
X0136731Y0205359D01*
X0186731Y0205359D01*
X0186731Y0195359D01*
X0176731Y0195359D01*
X0176731Y0205359D01*
X0176731Y0195359D02*
X0136731Y0195359D01*
X0082912Y0056136D02*
X0034094Y0056136D01*
X0034094Y0033499D01*
X0082912Y0033499D01*
X0082912Y0056136D01*
X0073464Y0055910D02*
X0073464Y0053942D01*
X0073464Y0030713D02*
X0073464Y0028745D01*
X0082912Y0030940D02*
X0034094Y0030940D01*
X0034094Y0008302D01*
X0082912Y0008302D01*
X0082912Y0030940D01*
X0043149Y0030713D02*
X0043149Y0028745D01*
X0043149Y0053942D02*
X0043149Y0055910D01*
D19*
X0142834Y0157997D02*
X0168424Y0157997D01*
X0168424Y0165871D02*
X0164094Y0165871D01*
X0164094Y0179650D01*
X0159763Y0179650D01*
X0159763Y0165477D01*
X0155038Y0165477D01*
X0155038Y0179650D01*
X0150314Y0179650D01*
X0150314Y0165477D01*
X0146377Y0165477D01*
X0146377Y0180044D01*
X0142834Y0180044D01*
X0142834Y0160753D01*
X0142834Y0160359D02*
X0142834Y0157997D01*
X0168424Y0165871D02*
X0168424Y0179650D01*
X0184172Y0179650D01*
D20*
X0124920Y0070719D03*
M02*
