G75*
%MOIN*%
%OFA0B0*%
%FSLAX25Y25*%
%IPPOS*%
%LPD*%
%AMOC8*
5,1,8,0,0,1.08239X$1,22.5*
%
%ADD10C,0.00000*%
%ADD11C,0.00600*%
%ADD12C,0.00700*%
%ADD13C,0.00500*%
D10*
X0027007Y0007485D02*
X0027007Y0216146D01*
X0243542Y0216146D01*
X0243542Y0007485D01*
X0027007Y0007485D01*
X0095117Y0035044D02*
X0095119Y0035149D01*
X0095125Y0035254D01*
X0095135Y0035358D01*
X0095149Y0035462D01*
X0095167Y0035566D01*
X0095189Y0035668D01*
X0095214Y0035770D01*
X0095244Y0035871D01*
X0095277Y0035970D01*
X0095314Y0036068D01*
X0095355Y0036165D01*
X0095400Y0036260D01*
X0095448Y0036353D01*
X0095499Y0036445D01*
X0095555Y0036534D01*
X0095613Y0036621D01*
X0095675Y0036706D01*
X0095739Y0036789D01*
X0095807Y0036869D01*
X0095878Y0036946D01*
X0095952Y0037020D01*
X0096029Y0037092D01*
X0096108Y0037161D01*
X0096190Y0037226D01*
X0096274Y0037289D01*
X0096361Y0037348D01*
X0096450Y0037404D01*
X0096541Y0037457D01*
X0096634Y0037506D01*
X0096728Y0037551D01*
X0096824Y0037593D01*
X0096922Y0037631D01*
X0097021Y0037665D01*
X0097122Y0037696D01*
X0097223Y0037722D01*
X0097326Y0037745D01*
X0097429Y0037764D01*
X0097533Y0037779D01*
X0097637Y0037790D01*
X0097742Y0037797D01*
X0097847Y0037800D01*
X0097952Y0037799D01*
X0098057Y0037794D01*
X0098161Y0037785D01*
X0098265Y0037772D01*
X0098369Y0037755D01*
X0098472Y0037734D01*
X0098574Y0037709D01*
X0098675Y0037681D01*
X0098774Y0037648D01*
X0098873Y0037612D01*
X0098970Y0037572D01*
X0099065Y0037529D01*
X0099159Y0037481D01*
X0099251Y0037431D01*
X0099341Y0037377D01*
X0099429Y0037319D01*
X0099514Y0037258D01*
X0099597Y0037194D01*
X0099678Y0037127D01*
X0099756Y0037057D01*
X0099831Y0036983D01*
X0099903Y0036908D01*
X0099973Y0036829D01*
X0100039Y0036748D01*
X0100103Y0036664D01*
X0100163Y0036578D01*
X0100219Y0036490D01*
X0100273Y0036399D01*
X0100323Y0036307D01*
X0100369Y0036213D01*
X0100412Y0036117D01*
X0100451Y0036019D01*
X0100486Y0035921D01*
X0100517Y0035820D01*
X0100545Y0035719D01*
X0100569Y0035617D01*
X0100589Y0035514D01*
X0100605Y0035410D01*
X0100617Y0035306D01*
X0100625Y0035201D01*
X0100629Y0035096D01*
X0100629Y0034992D01*
X0100625Y0034887D01*
X0100617Y0034782D01*
X0100605Y0034678D01*
X0100589Y0034574D01*
X0100569Y0034471D01*
X0100545Y0034369D01*
X0100517Y0034268D01*
X0100486Y0034167D01*
X0100451Y0034069D01*
X0100412Y0033971D01*
X0100369Y0033875D01*
X0100323Y0033781D01*
X0100273Y0033689D01*
X0100219Y0033598D01*
X0100163Y0033510D01*
X0100103Y0033424D01*
X0100039Y0033340D01*
X0099973Y0033259D01*
X0099903Y0033180D01*
X0099831Y0033105D01*
X0099756Y0033031D01*
X0099678Y0032961D01*
X0099597Y0032894D01*
X0099514Y0032830D01*
X0099429Y0032769D01*
X0099341Y0032711D01*
X0099251Y0032657D01*
X0099159Y0032607D01*
X0099065Y0032559D01*
X0098970Y0032516D01*
X0098873Y0032476D01*
X0098774Y0032440D01*
X0098675Y0032407D01*
X0098574Y0032379D01*
X0098472Y0032354D01*
X0098369Y0032333D01*
X0098265Y0032316D01*
X0098161Y0032303D01*
X0098057Y0032294D01*
X0097952Y0032289D01*
X0097847Y0032288D01*
X0097742Y0032291D01*
X0097637Y0032298D01*
X0097533Y0032309D01*
X0097429Y0032324D01*
X0097326Y0032343D01*
X0097223Y0032366D01*
X0097122Y0032392D01*
X0097021Y0032423D01*
X0096922Y0032457D01*
X0096824Y0032495D01*
X0096728Y0032537D01*
X0096634Y0032582D01*
X0096541Y0032631D01*
X0096450Y0032684D01*
X0096361Y0032740D01*
X0096274Y0032799D01*
X0096190Y0032862D01*
X0096108Y0032927D01*
X0096029Y0032996D01*
X0095952Y0033068D01*
X0095878Y0033142D01*
X0095807Y0033219D01*
X0095739Y0033299D01*
X0095675Y0033382D01*
X0095613Y0033467D01*
X0095555Y0033554D01*
X0095499Y0033643D01*
X0095448Y0033735D01*
X0095400Y0033828D01*
X0095355Y0033923D01*
X0095314Y0034020D01*
X0095277Y0034118D01*
X0095244Y0034217D01*
X0095214Y0034318D01*
X0095189Y0034420D01*
X0095167Y0034522D01*
X0095149Y0034626D01*
X0095135Y0034730D01*
X0095125Y0034834D01*
X0095119Y0034939D01*
X0095117Y0035044D01*
X0219133Y0023233D02*
X0219135Y0023338D01*
X0219141Y0023443D01*
X0219151Y0023547D01*
X0219165Y0023651D01*
X0219183Y0023755D01*
X0219205Y0023857D01*
X0219230Y0023959D01*
X0219260Y0024060D01*
X0219293Y0024159D01*
X0219330Y0024257D01*
X0219371Y0024354D01*
X0219416Y0024449D01*
X0219464Y0024542D01*
X0219515Y0024634D01*
X0219571Y0024723D01*
X0219629Y0024810D01*
X0219691Y0024895D01*
X0219755Y0024978D01*
X0219823Y0025058D01*
X0219894Y0025135D01*
X0219968Y0025209D01*
X0220045Y0025281D01*
X0220124Y0025350D01*
X0220206Y0025415D01*
X0220290Y0025478D01*
X0220377Y0025537D01*
X0220466Y0025593D01*
X0220557Y0025646D01*
X0220650Y0025695D01*
X0220744Y0025740D01*
X0220840Y0025782D01*
X0220938Y0025820D01*
X0221037Y0025854D01*
X0221138Y0025885D01*
X0221239Y0025911D01*
X0221342Y0025934D01*
X0221445Y0025953D01*
X0221549Y0025968D01*
X0221653Y0025979D01*
X0221758Y0025986D01*
X0221863Y0025989D01*
X0221968Y0025988D01*
X0222073Y0025983D01*
X0222177Y0025974D01*
X0222281Y0025961D01*
X0222385Y0025944D01*
X0222488Y0025923D01*
X0222590Y0025898D01*
X0222691Y0025870D01*
X0222790Y0025837D01*
X0222889Y0025801D01*
X0222986Y0025761D01*
X0223081Y0025718D01*
X0223175Y0025670D01*
X0223267Y0025620D01*
X0223357Y0025566D01*
X0223445Y0025508D01*
X0223530Y0025447D01*
X0223613Y0025383D01*
X0223694Y0025316D01*
X0223772Y0025246D01*
X0223847Y0025172D01*
X0223919Y0025097D01*
X0223989Y0025018D01*
X0224055Y0024937D01*
X0224119Y0024853D01*
X0224179Y0024767D01*
X0224235Y0024679D01*
X0224289Y0024588D01*
X0224339Y0024496D01*
X0224385Y0024402D01*
X0224428Y0024306D01*
X0224467Y0024208D01*
X0224502Y0024110D01*
X0224533Y0024009D01*
X0224561Y0023908D01*
X0224585Y0023806D01*
X0224605Y0023703D01*
X0224621Y0023599D01*
X0224633Y0023495D01*
X0224641Y0023390D01*
X0224645Y0023285D01*
X0224645Y0023181D01*
X0224641Y0023076D01*
X0224633Y0022971D01*
X0224621Y0022867D01*
X0224605Y0022763D01*
X0224585Y0022660D01*
X0224561Y0022558D01*
X0224533Y0022457D01*
X0224502Y0022356D01*
X0224467Y0022258D01*
X0224428Y0022160D01*
X0224385Y0022064D01*
X0224339Y0021970D01*
X0224289Y0021878D01*
X0224235Y0021787D01*
X0224179Y0021699D01*
X0224119Y0021613D01*
X0224055Y0021529D01*
X0223989Y0021448D01*
X0223919Y0021369D01*
X0223847Y0021294D01*
X0223772Y0021220D01*
X0223694Y0021150D01*
X0223613Y0021083D01*
X0223530Y0021019D01*
X0223445Y0020958D01*
X0223357Y0020900D01*
X0223267Y0020846D01*
X0223175Y0020796D01*
X0223081Y0020748D01*
X0222986Y0020705D01*
X0222889Y0020665D01*
X0222790Y0020629D01*
X0222691Y0020596D01*
X0222590Y0020568D01*
X0222488Y0020543D01*
X0222385Y0020522D01*
X0222281Y0020505D01*
X0222177Y0020492D01*
X0222073Y0020483D01*
X0221968Y0020478D01*
X0221863Y0020477D01*
X0221758Y0020480D01*
X0221653Y0020487D01*
X0221549Y0020498D01*
X0221445Y0020513D01*
X0221342Y0020532D01*
X0221239Y0020555D01*
X0221138Y0020581D01*
X0221037Y0020612D01*
X0220938Y0020646D01*
X0220840Y0020684D01*
X0220744Y0020726D01*
X0220650Y0020771D01*
X0220557Y0020820D01*
X0220466Y0020873D01*
X0220377Y0020929D01*
X0220290Y0020988D01*
X0220206Y0021051D01*
X0220124Y0021116D01*
X0220045Y0021185D01*
X0219968Y0021257D01*
X0219894Y0021331D01*
X0219823Y0021408D01*
X0219755Y0021488D01*
X0219691Y0021571D01*
X0219629Y0021656D01*
X0219571Y0021743D01*
X0219515Y0021832D01*
X0219464Y0021924D01*
X0219416Y0022017D01*
X0219371Y0022112D01*
X0219330Y0022209D01*
X0219293Y0022307D01*
X0219260Y0022406D01*
X0219230Y0022507D01*
X0219205Y0022609D01*
X0219183Y0022711D01*
X0219165Y0022815D01*
X0219151Y0022919D01*
X0219141Y0023023D01*
X0219135Y0023128D01*
X0219133Y0023233D01*
X0213227Y0198430D02*
X0213229Y0198535D01*
X0213235Y0198640D01*
X0213245Y0198744D01*
X0213259Y0198848D01*
X0213277Y0198952D01*
X0213299Y0199054D01*
X0213324Y0199156D01*
X0213354Y0199257D01*
X0213387Y0199356D01*
X0213424Y0199454D01*
X0213465Y0199551D01*
X0213510Y0199646D01*
X0213558Y0199739D01*
X0213609Y0199831D01*
X0213665Y0199920D01*
X0213723Y0200007D01*
X0213785Y0200092D01*
X0213849Y0200175D01*
X0213917Y0200255D01*
X0213988Y0200332D01*
X0214062Y0200406D01*
X0214139Y0200478D01*
X0214218Y0200547D01*
X0214300Y0200612D01*
X0214384Y0200675D01*
X0214471Y0200734D01*
X0214560Y0200790D01*
X0214651Y0200843D01*
X0214744Y0200892D01*
X0214838Y0200937D01*
X0214934Y0200979D01*
X0215032Y0201017D01*
X0215131Y0201051D01*
X0215232Y0201082D01*
X0215333Y0201108D01*
X0215436Y0201131D01*
X0215539Y0201150D01*
X0215643Y0201165D01*
X0215747Y0201176D01*
X0215852Y0201183D01*
X0215957Y0201186D01*
X0216062Y0201185D01*
X0216167Y0201180D01*
X0216271Y0201171D01*
X0216375Y0201158D01*
X0216479Y0201141D01*
X0216582Y0201120D01*
X0216684Y0201095D01*
X0216785Y0201067D01*
X0216884Y0201034D01*
X0216983Y0200998D01*
X0217080Y0200958D01*
X0217175Y0200915D01*
X0217269Y0200867D01*
X0217361Y0200817D01*
X0217451Y0200763D01*
X0217539Y0200705D01*
X0217624Y0200644D01*
X0217707Y0200580D01*
X0217788Y0200513D01*
X0217866Y0200443D01*
X0217941Y0200369D01*
X0218013Y0200294D01*
X0218083Y0200215D01*
X0218149Y0200134D01*
X0218213Y0200050D01*
X0218273Y0199964D01*
X0218329Y0199876D01*
X0218383Y0199785D01*
X0218433Y0199693D01*
X0218479Y0199599D01*
X0218522Y0199503D01*
X0218561Y0199405D01*
X0218596Y0199307D01*
X0218627Y0199206D01*
X0218655Y0199105D01*
X0218679Y0199003D01*
X0218699Y0198900D01*
X0218715Y0198796D01*
X0218727Y0198692D01*
X0218735Y0198587D01*
X0218739Y0198482D01*
X0218739Y0198378D01*
X0218735Y0198273D01*
X0218727Y0198168D01*
X0218715Y0198064D01*
X0218699Y0197960D01*
X0218679Y0197857D01*
X0218655Y0197755D01*
X0218627Y0197654D01*
X0218596Y0197553D01*
X0218561Y0197455D01*
X0218522Y0197357D01*
X0218479Y0197261D01*
X0218433Y0197167D01*
X0218383Y0197075D01*
X0218329Y0196984D01*
X0218273Y0196896D01*
X0218213Y0196810D01*
X0218149Y0196726D01*
X0218083Y0196645D01*
X0218013Y0196566D01*
X0217941Y0196491D01*
X0217866Y0196417D01*
X0217788Y0196347D01*
X0217707Y0196280D01*
X0217624Y0196216D01*
X0217539Y0196155D01*
X0217451Y0196097D01*
X0217361Y0196043D01*
X0217269Y0195993D01*
X0217175Y0195945D01*
X0217080Y0195902D01*
X0216983Y0195862D01*
X0216884Y0195826D01*
X0216785Y0195793D01*
X0216684Y0195765D01*
X0216582Y0195740D01*
X0216479Y0195719D01*
X0216375Y0195702D01*
X0216271Y0195689D01*
X0216167Y0195680D01*
X0216062Y0195675D01*
X0215957Y0195674D01*
X0215852Y0195677D01*
X0215747Y0195684D01*
X0215643Y0195695D01*
X0215539Y0195710D01*
X0215436Y0195729D01*
X0215333Y0195752D01*
X0215232Y0195778D01*
X0215131Y0195809D01*
X0215032Y0195843D01*
X0214934Y0195881D01*
X0214838Y0195923D01*
X0214744Y0195968D01*
X0214651Y0196017D01*
X0214560Y0196070D01*
X0214471Y0196126D01*
X0214384Y0196185D01*
X0214300Y0196248D01*
X0214218Y0196313D01*
X0214139Y0196382D01*
X0214062Y0196454D01*
X0213988Y0196528D01*
X0213917Y0196605D01*
X0213849Y0196685D01*
X0213785Y0196768D01*
X0213723Y0196853D01*
X0213665Y0196940D01*
X0213609Y0197029D01*
X0213558Y0197121D01*
X0213510Y0197214D01*
X0213465Y0197309D01*
X0213424Y0197406D01*
X0213387Y0197504D01*
X0213354Y0197603D01*
X0213324Y0197704D01*
X0213299Y0197806D01*
X0213277Y0197908D01*
X0213259Y0198012D01*
X0213245Y0198116D01*
X0213235Y0198220D01*
X0213229Y0198325D01*
X0213227Y0198430D01*
X0051810Y0198430D02*
X0051812Y0198535D01*
X0051818Y0198640D01*
X0051828Y0198744D01*
X0051842Y0198848D01*
X0051860Y0198952D01*
X0051882Y0199054D01*
X0051907Y0199156D01*
X0051937Y0199257D01*
X0051970Y0199356D01*
X0052007Y0199454D01*
X0052048Y0199551D01*
X0052093Y0199646D01*
X0052141Y0199739D01*
X0052192Y0199831D01*
X0052248Y0199920D01*
X0052306Y0200007D01*
X0052368Y0200092D01*
X0052432Y0200175D01*
X0052500Y0200255D01*
X0052571Y0200332D01*
X0052645Y0200406D01*
X0052722Y0200478D01*
X0052801Y0200547D01*
X0052883Y0200612D01*
X0052967Y0200675D01*
X0053054Y0200734D01*
X0053143Y0200790D01*
X0053234Y0200843D01*
X0053327Y0200892D01*
X0053421Y0200937D01*
X0053517Y0200979D01*
X0053615Y0201017D01*
X0053714Y0201051D01*
X0053815Y0201082D01*
X0053916Y0201108D01*
X0054019Y0201131D01*
X0054122Y0201150D01*
X0054226Y0201165D01*
X0054330Y0201176D01*
X0054435Y0201183D01*
X0054540Y0201186D01*
X0054645Y0201185D01*
X0054750Y0201180D01*
X0054854Y0201171D01*
X0054958Y0201158D01*
X0055062Y0201141D01*
X0055165Y0201120D01*
X0055267Y0201095D01*
X0055368Y0201067D01*
X0055467Y0201034D01*
X0055566Y0200998D01*
X0055663Y0200958D01*
X0055758Y0200915D01*
X0055852Y0200867D01*
X0055944Y0200817D01*
X0056034Y0200763D01*
X0056122Y0200705D01*
X0056207Y0200644D01*
X0056290Y0200580D01*
X0056371Y0200513D01*
X0056449Y0200443D01*
X0056524Y0200369D01*
X0056596Y0200294D01*
X0056666Y0200215D01*
X0056732Y0200134D01*
X0056796Y0200050D01*
X0056856Y0199964D01*
X0056912Y0199876D01*
X0056966Y0199785D01*
X0057016Y0199693D01*
X0057062Y0199599D01*
X0057105Y0199503D01*
X0057144Y0199405D01*
X0057179Y0199307D01*
X0057210Y0199206D01*
X0057238Y0199105D01*
X0057262Y0199003D01*
X0057282Y0198900D01*
X0057298Y0198796D01*
X0057310Y0198692D01*
X0057318Y0198587D01*
X0057322Y0198482D01*
X0057322Y0198378D01*
X0057318Y0198273D01*
X0057310Y0198168D01*
X0057298Y0198064D01*
X0057282Y0197960D01*
X0057262Y0197857D01*
X0057238Y0197755D01*
X0057210Y0197654D01*
X0057179Y0197553D01*
X0057144Y0197455D01*
X0057105Y0197357D01*
X0057062Y0197261D01*
X0057016Y0197167D01*
X0056966Y0197075D01*
X0056912Y0196984D01*
X0056856Y0196896D01*
X0056796Y0196810D01*
X0056732Y0196726D01*
X0056666Y0196645D01*
X0056596Y0196566D01*
X0056524Y0196491D01*
X0056449Y0196417D01*
X0056371Y0196347D01*
X0056290Y0196280D01*
X0056207Y0196216D01*
X0056122Y0196155D01*
X0056034Y0196097D01*
X0055944Y0196043D01*
X0055852Y0195993D01*
X0055758Y0195945D01*
X0055663Y0195902D01*
X0055566Y0195862D01*
X0055467Y0195826D01*
X0055368Y0195793D01*
X0055267Y0195765D01*
X0055165Y0195740D01*
X0055062Y0195719D01*
X0054958Y0195702D01*
X0054854Y0195689D01*
X0054750Y0195680D01*
X0054645Y0195675D01*
X0054540Y0195674D01*
X0054435Y0195677D01*
X0054330Y0195684D01*
X0054226Y0195695D01*
X0054122Y0195710D01*
X0054019Y0195729D01*
X0053916Y0195752D01*
X0053815Y0195778D01*
X0053714Y0195809D01*
X0053615Y0195843D01*
X0053517Y0195881D01*
X0053421Y0195923D01*
X0053327Y0195968D01*
X0053234Y0196017D01*
X0053143Y0196070D01*
X0053054Y0196126D01*
X0052967Y0196185D01*
X0052883Y0196248D01*
X0052801Y0196313D01*
X0052722Y0196382D01*
X0052645Y0196454D01*
X0052571Y0196528D01*
X0052500Y0196605D01*
X0052432Y0196685D01*
X0052368Y0196768D01*
X0052306Y0196853D01*
X0052248Y0196940D01*
X0052192Y0197029D01*
X0052141Y0197121D01*
X0052093Y0197214D01*
X0052048Y0197309D01*
X0052007Y0197406D01*
X0051970Y0197504D01*
X0051937Y0197603D01*
X0051907Y0197704D01*
X0051882Y0197806D01*
X0051860Y0197908D01*
X0051842Y0198012D01*
X0051828Y0198116D01*
X0051818Y0198220D01*
X0051812Y0198325D01*
X0051810Y0198430D01*
D11*
X0063453Y0187823D02*
X0064621Y0188990D01*
X0065789Y0187823D01*
X0065789Y0185487D01*
X0066956Y0184320D01*
X0068124Y0185487D01*
X0068124Y0188990D01*
X0063453Y0187823D02*
X0063453Y0184320D01*
X0063453Y0181990D02*
X0063453Y0179654D01*
X0063453Y0180822D02*
X0070459Y0180822D01*
X0070459Y0179654D01*
X0070459Y0176157D02*
X0063453Y0176157D01*
X0063453Y0177324D02*
X0063453Y0174989D01*
X0065789Y0172662D02*
X0065789Y0167991D01*
X0066956Y0167991D02*
X0064621Y0167991D01*
X0063453Y0169159D01*
X0063453Y0171494D01*
X0065789Y0172662D02*
X0066956Y0172662D01*
X0068124Y0171494D01*
X0068124Y0169159D01*
X0066956Y0167991D01*
X0063453Y0165664D02*
X0070459Y0165664D01*
X0072518Y0165661D02*
X0072518Y0166829D01*
X0073686Y0167996D01*
X0079524Y0167996D01*
X0079524Y0170324D02*
X0078356Y0170324D01*
X0078356Y0171491D01*
X0079524Y0171491D01*
X0079524Y0170324D01*
X0076021Y0170324D02*
X0074853Y0170324D01*
X0074853Y0171491D01*
X0076021Y0171491D01*
X0076021Y0170324D01*
X0074853Y0167996D02*
X0074853Y0164493D01*
X0076021Y0163326D01*
X0079524Y0163326D01*
X0078356Y0160998D02*
X0079524Y0159831D01*
X0079524Y0156328D01*
X0081859Y0156328D02*
X0074853Y0156328D01*
X0074853Y0159831D01*
X0076021Y0160998D01*
X0078356Y0160998D01*
X0070459Y0160993D02*
X0063453Y0160993D01*
X0065789Y0163328D01*
X0063453Y0165664D01*
X0056724Y0165661D02*
X0056724Y0166829D01*
X0056724Y0165661D02*
X0054389Y0163326D01*
X0056724Y0163326D02*
X0052053Y0163326D01*
X0053221Y0160998D02*
X0055556Y0160998D01*
X0056724Y0159831D01*
X0056724Y0157495D01*
X0055556Y0156328D01*
X0053221Y0156328D01*
X0052053Y0157495D01*
X0052053Y0159831D01*
X0053221Y0160998D01*
X0047659Y0160998D02*
X0040653Y0160998D01*
X0042989Y0158663D01*
X0040653Y0156328D01*
X0047659Y0156328D01*
X0052053Y0149330D02*
X0059059Y0149330D01*
X0059059Y0154000D01*
X0055556Y0151665D02*
X0055556Y0149330D01*
X0048827Y0145832D02*
X0047659Y0145832D01*
X0045324Y0145832D02*
X0045324Y0144664D01*
X0045324Y0145832D02*
X0040653Y0145832D01*
X0040653Y0144664D02*
X0040653Y0147000D01*
X0040653Y0142337D02*
X0044156Y0142337D01*
X0045324Y0141169D01*
X0044156Y0140002D01*
X0040653Y0140002D01*
X0040653Y0137666D02*
X0045324Y0137666D01*
X0045324Y0138834D01*
X0044156Y0140002D01*
X0045324Y0135339D02*
X0040653Y0135339D01*
X0040653Y0131836D01*
X0041821Y0130669D01*
X0045324Y0130669D01*
X0045324Y0128341D02*
X0045324Y0124838D01*
X0044156Y0123671D01*
X0042989Y0124838D01*
X0042989Y0127174D01*
X0041821Y0128341D01*
X0040653Y0127174D01*
X0040653Y0123671D01*
X0040653Y0121341D02*
X0041821Y0120173D01*
X0046492Y0120173D01*
X0045324Y0119005D02*
X0045324Y0121341D01*
X0047659Y0116675D02*
X0047659Y0114340D01*
X0047659Y0115508D02*
X0040653Y0115508D01*
X0040653Y0116675D02*
X0040653Y0114340D01*
X0063453Y0114340D02*
X0068124Y0114340D01*
X0068124Y0117843D01*
X0066956Y0119011D01*
X0063453Y0119011D01*
X0064621Y0121338D02*
X0065789Y0122506D01*
X0065789Y0126009D01*
X0066956Y0126009D02*
X0068124Y0124841D01*
X0068124Y0122506D01*
X0064621Y0121338D02*
X0063453Y0122506D01*
X0063453Y0126009D01*
X0066956Y0126009D01*
X0068124Y0128336D02*
X0068124Y0130671D01*
X0069292Y0129503D02*
X0064621Y0129503D01*
X0063453Y0130671D01*
X0063453Y0133001D02*
X0070459Y0133001D01*
X0068124Y0134169D02*
X0068124Y0136504D01*
X0066956Y0137672D01*
X0063453Y0137672D01*
X0064621Y0139999D02*
X0065789Y0141167D01*
X0065789Y0144670D01*
X0066956Y0144670D02*
X0063453Y0144670D01*
X0063453Y0141167D01*
X0064621Y0139999D01*
X0068124Y0141167D02*
X0068124Y0143502D01*
X0066956Y0144670D01*
X0068124Y0146997D02*
X0068124Y0150500D01*
X0066956Y0151668D01*
X0063453Y0151668D01*
X0063453Y0146997D02*
X0068124Y0146997D01*
X0074853Y0145835D02*
X0074853Y0143499D01*
X0076021Y0142332D01*
X0078356Y0142332D01*
X0079524Y0143499D01*
X0079524Y0145835D01*
X0078356Y0147002D01*
X0077189Y0147002D01*
X0077189Y0142332D01*
X0079524Y0140004D02*
X0079524Y0136501D01*
X0078356Y0135334D01*
X0076021Y0135334D01*
X0074853Y0136501D01*
X0074853Y0140004D01*
X0081859Y0140004D01*
X0078356Y0133006D02*
X0074853Y0133006D01*
X0074853Y0129503D01*
X0076021Y0128336D01*
X0077189Y0129503D01*
X0077189Y0133006D01*
X0078356Y0133006D02*
X0079524Y0131839D01*
X0079524Y0129503D01*
X0081859Y0126009D02*
X0074853Y0126009D01*
X0079524Y0123673D02*
X0081859Y0126009D01*
X0079524Y0123673D02*
X0081859Y0121338D01*
X0074853Y0121338D01*
X0066956Y0112013D02*
X0064621Y0112013D01*
X0063453Y0110845D01*
X0063453Y0108510D01*
X0064621Y0107342D01*
X0066956Y0107342D01*
X0068124Y0108510D01*
X0068124Y0110845D01*
X0066956Y0112013D01*
X0070459Y0105015D02*
X0070459Y0102679D01*
X0070459Y0103847D02*
X0064621Y0103847D01*
X0063453Y0102679D01*
X0063453Y0101512D01*
X0064621Y0100344D01*
X0066956Y0133001D02*
X0068124Y0134169D01*
X0044156Y0163326D02*
X0041821Y0163326D01*
X0040653Y0164493D01*
X0040653Y0166829D01*
X0042989Y0167996D02*
X0042989Y0163326D01*
X0044156Y0163326D02*
X0045324Y0164493D01*
X0045324Y0166829D01*
X0044156Y0167996D01*
X0042989Y0167996D01*
X0040653Y0170324D02*
X0040653Y0172659D01*
X0040653Y0171491D02*
X0047659Y0171491D01*
X0047659Y0170324D01*
X0052053Y0170325D02*
X0052053Y0169157D01*
X0053221Y0169157D01*
X0053221Y0170325D01*
X0052053Y0170325D01*
X0055556Y0170325D02*
X0055556Y0169157D01*
X0056724Y0169157D01*
X0056724Y0170325D01*
X0055556Y0170325D01*
X0047659Y0174989D02*
X0047659Y0176157D01*
X0040653Y0176157D01*
X0040653Y0177324D02*
X0040653Y0174989D01*
X0040653Y0179654D02*
X0040653Y0183157D01*
X0041821Y0184325D01*
X0042989Y0183157D01*
X0042989Y0180822D01*
X0044156Y0179654D01*
X0045324Y0180822D01*
X0045324Y0184325D01*
X0070459Y0176157D02*
X0070459Y0174989D01*
X0164511Y0167055D02*
X0165578Y0167055D01*
X0167713Y0164920D01*
X0167713Y0162785D02*
X0167713Y0167055D01*
X0169888Y0165988D02*
X0169888Y0164920D01*
X0174159Y0164920D01*
X0174159Y0163852D02*
X0174159Y0165988D01*
X0173091Y0167055D01*
X0170956Y0167055D01*
X0169888Y0165988D01*
X0170956Y0162785D02*
X0173091Y0162785D01*
X0174159Y0163852D01*
X0176321Y0162785D02*
X0178456Y0162785D01*
X0177388Y0162785D02*
X0177388Y0169190D01*
X0178456Y0169190D01*
X0181685Y0169190D02*
X0181685Y0162785D01*
X0180618Y0162785D02*
X0182753Y0162785D01*
X0184928Y0163852D02*
X0184928Y0165988D01*
X0185996Y0167055D01*
X0188131Y0167055D01*
X0189198Y0165988D01*
X0189198Y0163852D01*
X0188131Y0162785D01*
X0185996Y0162785D01*
X0184928Y0163852D01*
X0182753Y0169190D02*
X0181685Y0169190D01*
X0181678Y0173285D02*
X0181678Y0179690D01*
X0177408Y0179690D01*
X0175233Y0177555D02*
X0174165Y0177555D01*
X0174165Y0173285D01*
X0173098Y0173285D02*
X0175233Y0173285D01*
X0179543Y0176488D02*
X0181678Y0176488D01*
X0184908Y0177555D02*
X0184908Y0173285D01*
X0185975Y0173285D02*
X0183840Y0173285D01*
X0188151Y0173285D02*
X0188151Y0179690D01*
X0185975Y0177555D02*
X0184908Y0177555D01*
X0184908Y0179690D02*
X0184908Y0180758D01*
X0190286Y0175420D02*
X0188151Y0173285D01*
X0190286Y0175420D02*
X0192421Y0173285D01*
X0192421Y0179690D01*
X0201042Y0178623D02*
X0201042Y0177555D01*
X0202109Y0176488D01*
X0205312Y0176488D01*
X0207487Y0176488D02*
X0207487Y0174352D01*
X0208555Y0173285D01*
X0210690Y0173285D01*
X0211757Y0174352D01*
X0211757Y0178623D01*
X0210690Y0179690D01*
X0208555Y0179690D01*
X0207487Y0178623D01*
X0207487Y0176488D02*
X0209622Y0176488D01*
X0213933Y0176488D02*
X0213933Y0178623D01*
X0215000Y0179690D01*
X0218203Y0179690D01*
X0218203Y0173285D01*
X0218203Y0175420D02*
X0215000Y0175420D01*
X0213933Y0176488D01*
X0216068Y0175420D02*
X0213933Y0173285D01*
X0215000Y0169190D02*
X0213933Y0168123D01*
X0215000Y0169190D02*
X0217135Y0169190D01*
X0218203Y0168123D01*
X0218203Y0163852D01*
X0217135Y0162785D01*
X0215000Y0162785D01*
X0213933Y0163852D01*
X0211757Y0163852D02*
X0210690Y0162785D01*
X0208555Y0162785D01*
X0207487Y0163852D01*
X0207487Y0165988D01*
X0208555Y0167055D01*
X0210690Y0167055D01*
X0211757Y0165988D01*
X0211757Y0163852D01*
X0205312Y0162785D02*
X0205312Y0167055D01*
X0202109Y0167055D01*
X0201042Y0165988D01*
X0201042Y0162785D01*
X0197799Y0163852D02*
X0196731Y0162785D01*
X0197799Y0163852D02*
X0197799Y0168123D01*
X0198866Y0167055D02*
X0196731Y0167055D01*
X0194569Y0167055D02*
X0194569Y0162785D01*
X0194569Y0164920D02*
X0192434Y0167055D01*
X0191367Y0167055D01*
X0201042Y0174352D02*
X0202109Y0173285D01*
X0205312Y0173285D01*
X0205312Y0179690D01*
X0202109Y0179690D01*
X0201042Y0178623D01*
X0202109Y0176488D02*
X0201042Y0175420D01*
X0201042Y0174352D01*
X0174165Y0179690D02*
X0174165Y0180758D01*
X0084690Y0035650D02*
X0084690Y0031380D01*
X0086825Y0033515D02*
X0082555Y0033515D01*
X0073934Y0032448D02*
X0070732Y0032448D01*
X0069664Y0033515D01*
X0069664Y0035650D01*
X0070732Y0036718D01*
X0073934Y0036718D01*
X0073934Y0030312D01*
X0071799Y0032448D02*
X0069664Y0030312D01*
X0061043Y0031380D02*
X0059976Y0030312D01*
X0057841Y0030312D01*
X0056773Y0031380D01*
X0056773Y0033515D01*
X0058908Y0033515D01*
X0056773Y0035650D02*
X0057841Y0036718D01*
X0059976Y0036718D01*
X0061043Y0035650D01*
X0061043Y0031380D01*
X0048152Y0030312D02*
X0044950Y0030312D01*
X0043882Y0031380D01*
X0043882Y0032448D01*
X0044950Y0033515D01*
X0048152Y0033515D01*
X0044950Y0033515D02*
X0043882Y0034583D01*
X0043882Y0035650D01*
X0044950Y0036718D01*
X0048152Y0036718D01*
X0048152Y0030312D01*
D12*
X0120703Y0021591D02*
X0125975Y0021591D01*
X0123339Y0024227D02*
X0123339Y0018956D01*
X0144460Y0021591D02*
X0149731Y0021591D01*
D13*
X0159605Y0013430D02*
X0206968Y0013430D01*
X0206968Y0083942D01*
X0159605Y0083942D01*
X0159605Y0013430D01*
M02*
