%
M48
M72
T01C0.02756
T02C0.03150
T03C0.03200
T04C0.03937
T05C0.04000
T06C0.05512
%
T01
X134172Y94611
X134172Y102485
X134172Y110359
X134172Y118233
X134172Y126107
X134172Y133981
X134172Y141855
X134172Y149729
X189290Y149729
X189290Y141855
X189290Y133981
X189290Y126107
X189290Y118233
X189290Y110359
X189290Y102485
X189290Y94611
T02
X202912Y79808
X221338Y100477
X221338Y108351
X163582Y80083
X163582Y17170
X203109Y17288
T03
X218936Y44375
X228936Y44375
X228936Y70477
X218936Y70477
X222164Y143016
X217164Y150516
X227164Y150516
T04
X142538Y31540
X122853Y31540
T05
X43503Y21658
X53503Y21658
X63503Y21658
X73503Y21658
X73503Y46855
X63503Y46855
X53503Y46855
X43503Y46855
X95826Y71678
X95826Y81678
X95826Y91678
X124920Y78469
X124920Y58469
X95826Y123568
X95826Y133568
X95826Y143568
X95826Y173371
X95826Y183371
X95826Y193371
X126377Y195359
X141731Y200359
X151731Y200359
X161731Y200359
X171731Y200359
X181731Y200359
X210983Y126107
T06
X215983Y198430
X54566Y198430
X97873Y35044
X221889Y23233
M30
