G75*
%MOIN*%
%OFA0B0*%
%FSLAX25Y25*%
%IPPOS*%
%LPD*%
%AMOC8*
5,1,8,0,0,1.08239X$1,22.5*
%
%ADD10C,0.06312*%
%ADD11OC8,0.06000*%
%ADD12C,0.09400*%
%ADD13OC8,0.08400*%
%ADD14C,0.06800*%
%ADD15R,0.03950X0.05524*%
%ADD16R,0.07887X0.07099*%
%ADD17R,0.06800X0.06800*%
%ADD18OC8,0.06800*%
%ADD19C,0.05556*%
%ADD20C,0.06400*%
%ADD21C,0.10800*%
%ADD22OC8,0.10800*%
%ADD23R,0.05950X0.05950*%
%ADD24OC8,0.07800*%
%ADD25C,0.07800*%
D10*
X0097873Y0035044D03*
X0221889Y0023233D03*
X0215983Y0198430D03*
X0054566Y0198430D03*
D11*
X0217164Y0150516D03*
X0222164Y0143016D03*
X0227164Y0150516D03*
D12*
X0142538Y0031540D03*
X0122853Y0031540D03*
D13*
X0210983Y0126107D03*
X0126377Y0195359D03*
D14*
X0043503Y0024658D02*
X0043503Y0018658D01*
X0053503Y0018658D02*
X0053503Y0024658D01*
X0063503Y0024658D02*
X0063503Y0018658D01*
X0073503Y0018658D02*
X0073503Y0024658D01*
X0073503Y0043855D02*
X0073503Y0049855D01*
X0063503Y0049855D02*
X0063503Y0043855D01*
X0053503Y0043855D02*
X0053503Y0049855D01*
X0043503Y0049855D02*
X0043503Y0043855D01*
X0092826Y0071678D02*
X0098826Y0071678D01*
X0098826Y0081678D02*
X0092826Y0081678D01*
X0092826Y0091678D02*
X0098826Y0091678D01*
X0098826Y0123568D02*
X0092826Y0123568D01*
X0092826Y0133568D02*
X0098826Y0133568D01*
X0098826Y0143568D02*
X0092826Y0143568D01*
X0092826Y0173371D02*
X0098826Y0173371D01*
X0098826Y0183371D02*
X0092826Y0183371D01*
X0092826Y0193371D02*
X0098826Y0193371D01*
D15*
X0114094Y0118233D03*
X0121180Y0118233D03*
X0121180Y0110339D03*
X0114094Y0110339D03*
X0114094Y0102485D03*
X0121180Y0102485D03*
D16*
X0205668Y0106973D03*
X0205668Y0095949D03*
D17*
X0181731Y0200359D03*
D18*
X0171731Y0200359D03*
X0161731Y0200359D03*
X0151731Y0200359D03*
X0141731Y0200359D03*
D19*
X0134172Y0149729D02*
X0129416Y0149729D01*
X0129416Y0141855D02*
X0134172Y0141855D01*
X0134172Y0133981D02*
X0129416Y0133981D01*
X0129416Y0126107D02*
X0134172Y0126107D01*
X0134172Y0118233D02*
X0129416Y0118233D01*
X0129416Y0110359D02*
X0134172Y0110359D01*
X0134172Y0102485D02*
X0129416Y0102485D01*
X0129416Y0094611D02*
X0134172Y0094611D01*
X0189290Y0094611D02*
X0194046Y0094611D01*
X0194046Y0102485D02*
X0189290Y0102485D01*
X0189290Y0110359D02*
X0194046Y0110359D01*
X0194046Y0118233D02*
X0189290Y0118233D01*
X0189290Y0126107D02*
X0194046Y0126107D01*
X0194046Y0133981D02*
X0189290Y0133981D01*
X0189290Y0141855D02*
X0194046Y0141855D01*
X0194046Y0149729D02*
X0189290Y0149729D01*
D20*
X0221338Y0108351D03*
X0221338Y0100477D03*
D21*
X0124920Y0058469D03*
D22*
X0124920Y0078469D03*
D23*
X0163582Y0080083D03*
X0202912Y0079808D03*
X0203109Y0017288D03*
X0163582Y0017170D03*
D24*
X0228936Y0044375D03*
X0228936Y0070477D03*
D25*
X0218936Y0070477D03*
X0218936Y0044375D03*
M02*
